<svg width="182" height="115" viewBox="0 0 182 115" fill="none" xmlns="http://www.w3.org/2000/svg">
<mask id="mask0_12282_584" style="mask-type:alpha" maskUnits="userSpaceOnUse" x="0" y="0" width="182" height="115">
<rect width="182" height="115" rx="13" fill="#FEC84B"/>
</mask>
<g mask="url(#mask0_12282_584)">
<path d="M195.839 88.0212V120.853C195.839 146.883 185.522 171.847 167.159 190.253C148.796 208.66 123.889 219 97.9195 219C71.9496 219 47.0434 208.66 28.6799 190.253C10.3165 171.847 0 146.883 0 120.853V15.5652L47.844 -32V120.874C47.844 134.185 53.1198 146.952 62.5107 156.365C71.9017 165.777 84.6386 171.065 97.9195 171.065C111.2 171.065 123.937 165.777 133.328 156.365C142.719 146.952 147.995 134.185 147.995 120.874V75.2988C148 74.0615 147.517 72.8724 146.65 71.9918C145.782 71.1111 144.603 70.6106 143.368 70.5997H97.9195L54.5794 22.7062H134.606C139.711 22.5444 144.788 23.5228 149.469 25.5707C154.15 27.6185 158.318 30.6844 161.67 34.5462L185.992 62.8637C192.299 69.7191 195.813 78.6958 195.839 88.0212Z" fill="#1849A9" fill-opacity="0.13"/>
<path d="M170.044 -32H97.9195L54.5794 15.9551H135.486C140.579 16.032 145.63 15.0152 150.298 12.9729C154.966 10.9307 159.144 7.91042 162.551 4.1151L196.023 -32H170.044Z" fill="#1849A9" fill-opacity="0.13"/>
</g>
</svg>
