<svg width="285" height="365" viewBox="0 0 285 365" fill="none" xmlns="http://www.w3.org/2000/svg">
<path d="M269.879 93.1423C270.62 93.2398 271.371 93.2398 272.112 93.1423C272.399 93.0561 272.65 92.8779 272.826 92.6351C272.989 92.3437 273.071 92.0142 273.064 91.6804C273.081 91.4992 273.06 91.3167 273.004 91.1437C272.947 90.9708 272.857 90.8111 272.737 90.6744C272.617 90.5377 272.471 90.4268 272.307 90.3484C272.144 90.2701 271.966 90.2259 271.784 90.2185C271.576 90.2185 270.326 90.2185 268.034 90.2185V93.2019L269.879 93.1423ZM276.636 100.273H273.66L271.844 97.5875C271.454 96.9488 271.016 96.3405 270.534 95.7677C270.329 95.5432 270.074 95.3696 269.79 95.2605C269.214 95.1351 268.623 95.085 268.034 95.1113V100.273H265.534V87.9213H270.772C271.776 87.8727 272.78 87.9834 273.749 88.2495C274.34 88.4841 274.841 88.9023 275.178 89.4428C275.541 90.0232 275.727 90.6972 275.713 91.382C275.746 92.2223 275.459 93.0436 274.91 93.6793C274.252 94.3291 273.389 94.7298 272.469 94.813C272.952 95.0975 273.393 95.449 273.779 95.8572C274.317 96.4874 274.795 97.1666 275.207 97.8859L276.636 100.273ZM278.303 86.1312C276.195 84.0306 273.343 82.8516 270.37 82.8516C267.398 82.8516 264.546 84.0306 262.438 86.1312C260.341 88.2494 259.164 91.1127 259.164 94.097C259.086 95.6207 259.317 97.1446 259.845 98.5757C260.373 100.007 261.186 101.315 262.234 102.422C263.282 103.528 264.544 104.409 265.943 105.011C267.342 105.613 268.848 105.924 270.37 105.924C271.893 105.924 273.399 105.613 274.798 105.011C276.197 104.409 277.459 103.528 278.507 102.422C279.555 101.315 280.368 100.007 280.896 98.5757C281.424 97.1446 281.655 95.6207 281.577 94.097C281.577 91.1127 280.4 88.2494 278.303 86.1312ZM270.385 79.6871C273.711 79.6866 276.933 80.8415 279.504 82.9551C282.075 85.0687 283.836 88.0102 284.486 91.2788C285.136 94.5474 284.636 97.9408 283.071 100.881C281.505 103.822 278.971 106.127 275.9 107.405C272.829 108.683 269.411 108.855 266.228 107.891C263.045 106.926 260.294 104.886 258.443 102.117C256.593 99.3481 255.757 96.0217 256.078 92.7043C256.399 89.387 257.858 86.2839 260.206 83.9235C261.538 82.5769 263.124 81.509 264.872 80.7817C266.619 80.0545 268.493 79.6824 270.385 79.6871Z" fill="white"/>
<path d="M284.732 174.5V222.235C284.732 260.08 269.733 296.376 243.034 323.136C216.335 349.897 180.124 364.931 142.366 364.931C104.608 364.931 68.3969 349.897 41.698 323.136C14.9992 296.376 0 260.08 0 222.235V69.1556L69.5608 0V222.264C69.5608 241.618 77.2314 260.18 90.885 273.865C104.539 287.55 123.057 295.239 142.366 295.239C161.675 295.239 180.194 287.55 193.847 273.865C207.501 260.18 215.171 241.618 215.171 222.264V156.003C215.179 154.204 214.476 152.475 213.215 151.195C211.954 149.914 210.239 149.187 208.444 149.171H142.366L79.3535 79.5378H195.705C203.127 79.3026 210.508 80.7252 217.314 83.7025C224.12 86.6799 230.18 91.1374 235.054 96.7521L270.415 137.923C279.585 147.89 284.694 160.942 284.732 174.5Z" fill="white"/>
<path d="M247.228 0H142.366L79.3535 69.7224H196.985C204.39 69.8342 211.732 68.3558 218.519 65.3866C225.307 62.4174 231.381 58.0261 236.334 52.5081L285 0H247.228Z" fill="#FEC84B"/>
</svg>
