<svg width="215" height="70" viewBox="0 0 215 70" fill="none" xmlns="http://www.w3.org/2000/svg">
<ellipse cx="42.4393" cy="10.2927" rx="8.28794" ry="8.29268" stroke="#697586" stroke-width="2"/>
<ellipse cx="42.4393" cy="60.0485" rx="8.28794" ry="8.29268" stroke="#697586" stroke-width="2"/>
<ellipse cx="9.28794" cy="43.4626" rx="8.28794" ry="8.29268" stroke="#697586" stroke-width="2"/>
<ellipse cx="59.0155" cy="43.4626" rx="8.28794" ry="8.29268" stroke="#697586" stroke-width="2"/>
<ellipse cx="80.5638" cy="35.1696" rx="8.28794" ry="8.29268" stroke="#697586" stroke-width="2"/>
<ellipse cx="130.291" cy="35.1696" rx="8.28794" ry="8.29268" stroke="#697586" stroke-width="2"/>
<ellipse cx="105.428" cy="10.2927" rx="8.28794" ry="8.29268" stroke="#697586" stroke-width="2"/>
<ellipse cx="105.428" cy="60.0485" rx="8.28794" ry="8.29268" stroke="#697586" stroke-width="2"/>
<path d="M1 43.4626C1 38.8827 4.71064 35.1699 9.28794 35.1699H59.0156C63.5929 35.1699 67.3035 38.8827 67.3035 43.4626C67.3035 48.0425 63.5929 51.7553 59.0156 51.7553H9.28794C4.71064 51.7553 1 48.0425 1 43.4626Z" stroke="#697586" stroke-width="2"/>
<path d="M42.4393 68.3398C37.862 68.3398 34.1514 64.6271 34.1514 60.0472L34.1514 10.2911C34.1514 5.71114 37.862 1.99838 42.4393 1.99838C47.0166 1.99838 50.7272 5.71114 50.7272 10.2911L50.7272 60.0472C50.7272 64.6271 47.0166 68.3398 42.4393 68.3398Z" stroke="#697586" stroke-width="2"/>
<path d="M3.54503 49.2662C0.308386 46.0277 0.308386 40.777 3.54503 37.5385L36.518 4.5467C39.7546 1.3082 45.0023 1.3082 48.2389 4.54669C51.4755 7.78519 51.4755 13.0358 48.2389 16.2743L15.2659 49.2662C12.0293 52.5047 6.78167 52.5047 3.54503 49.2662Z" stroke="#697586" stroke-width="2"/>
<ellipse cx="188.307" cy="10.2927" rx="8.28794" ry="8.29268" stroke="#697586" stroke-width="2"/>
<ellipse cx="188.307" cy="60.0485" rx="8.28794" ry="8.29268" stroke="#697586" stroke-width="2"/>
<ellipse cx="155.156" cy="43.4626" rx="8.28794" ry="8.29268" stroke="#697586" stroke-width="2"/>
<ellipse cx="204.883" cy="43.4626" rx="8.28794" ry="8.29268" stroke="#697586" stroke-width="2"/>
<path d="M146.868 43.4626C146.868 38.8827 150.578 35.1699 155.156 35.1699H204.883C209.461 35.1699 213.171 38.8827 213.171 43.4626C213.171 48.0425 209.461 51.7553 204.883 51.7553H155.156C150.578 51.7553 146.868 48.0425 146.868 43.4626Z" stroke="#697586" stroke-width="2"/>
<path d="M188.307 68.3398C183.73 68.3398 180.019 64.6271 180.019 60.0472L180.019 10.2911C180.019 5.71114 183.73 1.99838 188.307 1.99838C192.884 1.99838 196.595 5.71114 196.595 10.2911L196.595 60.0472C196.595 64.6271 192.884 68.3398 188.307 68.3398Z" stroke="#697586" stroke-width="2"/>
<path d="M149.413 49.2662C146.176 46.0277 146.176 40.777 149.413 37.5385L182.386 4.5467C185.622 1.3082 190.87 1.3082 194.107 4.54669C197.343 7.78519 197.343 13.0358 194.107 16.2743L161.134 49.2662C157.897 52.5047 152.649 52.5047 149.413 49.2662Z" stroke="#697586" stroke-width="2"/>
<ellipse cx="105.428" cy="35.1707" rx="33.1518" ry="33.1707" stroke="#697586" stroke-width="2"/>
<ellipse cx="105.428" cy="35.1693" rx="16.5759" ry="16.5854" stroke="#697586" stroke-width="2"/>
<line x1="0.585449" y1="1" x2="213.171" y2="1.00004" stroke="#697586" stroke-width="2"/>
<line x1="0.585449" y1="68.1699" x2="213.171" y2="68.1699" stroke="#697586" stroke-width="2"/>
</svg>
