<svg xmlns="http://www.w3.org/2000/svg" version="1.1" xmlns:xlink="http://www.w3.org/1999/xlink" width="1000" height="1000"><g clip-path="url(#SvgjsClipPath1018)"><rect width="1000" height="1000" fill="#194185"></rect><g transform="matrix(13.461538461538462,0,0,13.461538461538462,224.03846153846155,150)"><svg xmlns="http://www.w3.org/2000/svg" version="1.1" xmlns:xlink="http://www.w3.org/1999/xlink" width="41" height="52"><svg width="41" height="52" viewBox="0 0 41 52" fill="none" xmlns="http://www.w3.org/2000/svg">
<path d="M38.3368 13.2309C38.442 13.2448 38.5486 13.2448 38.6539 13.2309C38.6946 13.2187 38.7303 13.1934 38.7553 13.1589C38.7784 13.1175 38.7901 13.0707 38.7892 13.0233C38.7915 12.9975 38.7885 12.9716 38.7806 12.947C38.7726 12.9225 38.7597 12.8998 38.7427 12.8804C38.7257 12.8609 38.7049 12.8452 38.6817 12.834C38.6584 12.8229 38.6331 12.8166 38.6074 12.8156C38.5778 12.8156 38.4002 12.8156 38.0746 12.8156V13.2394L38.3368 13.2309ZM39.2965 14.2438H38.8737L38.6158 13.8624C38.5604 13.7716 38.4982 13.6852 38.4298 13.6039C38.4006 13.572 38.3644 13.5473 38.3241 13.5318C38.2422 13.514 38.1583 13.5069 38.0746 13.5106V14.2438H37.7194V12.4893H38.4636C38.6061 12.4824 38.7488 12.4981 38.8864 12.5359C38.9704 12.5692 39.0415 12.6286 39.0894 12.7054C39.1409 12.7879 39.1674 12.8836 39.1655 12.9809C39.1701 13.1002 39.1293 13.2169 39.0513 13.3072C38.9578 13.3995 38.8353 13.4564 38.7046 13.4682C38.7733 13.5087 38.8359 13.5586 38.8906 13.6166C38.9671 13.7061 39.035 13.8026 39.0936 13.9048L39.2965 14.2438ZM39.5333 12.235C39.2339 11.9366 38.8288 11.7691 38.4065 11.7691C37.9843 11.7691 37.5792 11.9366 37.2797 12.235C36.9818 12.5359 36.8146 12.9426 36.8146 13.3665C36.8035 13.583 36.8364 13.7994 36.9114 14.0027C36.9864 14.206 37.1018 14.3919 37.2507 14.5491C37.3996 14.7062 37.5789 14.8314 37.7776 14.9169C37.9763 15.0024 38.1903 15.0465 38.4065 15.0465C38.6228 15.0465 38.8367 15.0024 39.0354 14.9169C39.2341 14.8314 39.4134 14.7062 39.5623 14.5491C39.7112 14.3919 39.8267 14.206 39.9017 14.0027C39.9766 13.7994 40.0096 13.583 39.9984 13.3665C39.9984 12.9426 39.8313 12.5359 39.5333 12.235ZM38.4086 11.3196C38.881 11.3195 39.3387 11.4836 39.704 11.7838C40.0692 12.0841 40.3193 12.5019 40.4117 12.9662C40.504 13.4305 40.433 13.9126 40.2106 14.3302C39.9882 14.7479 39.6283 15.0754 39.192 15.257C38.7558 15.4385 38.2702 15.4629 37.8181 15.3259C37.3659 15.189 36.9751 14.8991 36.7122 14.5058C36.4493 14.1125 36.3306 13.6399 36.3763 13.1687C36.4219 12.6975 36.6291 12.2567 36.9626 11.9214C37.1519 11.7301 37.3772 11.5784 37.6254 11.4751C37.8736 11.3718 38.1399 11.3189 38.4086 11.3196Z" fill="white"></path>
<path d="M40.4466 24.7879V31.5687C40.4466 36.9447 38.3159 42.1005 34.5233 45.9019C30.7307 49.7034 25.5868 51.839 20.2233 51.839C14.8597 51.839 9.71586 49.7034 5.92326 45.9019C2.13066 42.1005 0 36.9447 0 31.5687V9.82364L9.8812 0V31.5729C9.8812 34.3222 10.9708 36.9589 12.9103 38.9029C14.8498 40.8469 17.4804 41.939 20.2233 41.939C22.9662 41.939 25.5967 40.8469 27.5362 38.9029C29.4757 36.9589 30.5654 34.3222 30.5654 31.5729V22.1604C30.5665 21.9049 30.4666 21.6593 30.2875 21.4774C30.1084 21.2955 29.8647 21.1921 29.6098 21.1899H20.2233L11.2723 11.2985H27.8001C28.8545 11.265 29.903 11.4671 30.8697 11.8901C31.8365 12.313 32.6973 12.9462 33.3898 13.7438L38.4128 19.5922C39.7155 21.008 40.4411 22.862 40.4466 24.7879Z" fill="white"></path>
<path d="M35.1193 0H20.2235L11.2725 9.90416H27.9821C29.034 9.92004 30.077 9.71003 31.0412 9.28825C32.0053 8.86647 32.8682 8.24269 33.5718 7.45884L40.4848 0H35.1193Z" fill="#FEC84B"></path>
</svg></svg></g></g><defs><clipPath id="SvgjsClipPath1018"><rect width="1000" height="1000" x="0" y="0" rx="350" ry="350"></rect></clipPath></defs></svg>