<svg width="51" height="51" viewBox="0 0 51 51" fill="none" xmlns="http://www.w3.org/2000/svg">
<circle cx="25.5" cy="25.5" r="25.5" fill="#4B5565"/>
<path d="M34.4066 20.3511C34.4571 20.3577 34.5083 20.3577 34.5588 20.3511C34.5784 20.3452 34.5955 20.3331 34.6076 20.3165C34.6186 20.2966 34.6242 20.2742 34.6238 20.2514C34.6249 20.2391 34.6235 20.2266 34.6197 20.2148C34.6158 20.203 34.6096 20.1921 34.6015 20.1828C34.5933 20.1735 34.5833 20.1659 34.5722 20.1606C34.561 20.1552 34.5489 20.1522 34.5365 20.1517C34.5223 20.1517 34.4371 20.1517 34.2808 20.1517V20.3552L34.4066 20.3511ZM34.8674 20.8373H34.6644L34.5406 20.6542C34.514 20.6107 34.4841 20.5692 34.4513 20.5301C34.4373 20.5148 34.4199 20.503 34.4005 20.4955C34.3612 20.487 34.321 20.4836 34.2808 20.4854V20.8373H34.1103V19.9951H34.4675C34.5359 19.9918 34.6044 19.9993 34.6705 20.0175C34.7108 20.0335 34.7449 20.062 34.7679 20.0988C34.7927 20.1384 34.8053 20.1844 34.8044 20.2311C34.8067 20.2884 34.7871 20.3444 34.7496 20.3877C34.7048 20.432 34.6459 20.4593 34.5832 20.465C34.6162 20.4844 34.6462 20.5084 34.6725 20.5362C34.7092 20.5792 34.7418 20.6255 34.7699 20.6746L34.8674 20.8373ZM34.981 19.873C34.8373 19.7298 34.6428 19.6494 34.4401 19.6494C34.2374 19.6494 34.043 19.7298 33.8992 19.873C33.7562 20.0175 33.6759 20.2127 33.676 20.4162C33.6706 20.5201 33.6864 20.624 33.7224 20.7216C33.7584 20.8192 33.8138 20.9084 33.8853 20.9838C33.9568 21.0593 34.0428 21.1194 34.1382 21.1604C34.2336 21.2015 34.3363 21.2226 34.4401 21.2226C34.5439 21.2226 34.6466 21.2015 34.742 21.1604C34.8374 21.1194 34.9234 21.0593 34.9949 20.9838C35.0664 20.9084 35.1218 20.8192 35.1578 20.7216C35.1938 20.624 35.2096 20.5201 35.2043 20.4162C35.2043 20.2127 35.124 20.0175 34.981 19.873ZM34.4411 19.4336C34.6679 19.4336 34.8876 19.5123 35.0629 19.6564C35.2382 19.8006 35.3583 20.0011 35.4026 20.224C35.447 20.4469 35.4129 20.6783 35.3061 20.8788C35.1994 21.0793 35.0266 21.2365 34.8172 21.3237C34.6078 21.4108 34.3747 21.4225 34.1576 21.3568C33.9406 21.291 33.753 21.1519 33.6268 20.9631C33.5006 20.7743 33.4436 20.5474 33.4655 20.3212C33.4874 20.095 33.5869 19.8834 33.747 19.7225C33.8378 19.6307 33.946 19.5578 34.0651 19.5082C34.1843 19.4587 34.3121 19.4333 34.4411 19.4336Z" fill="white"/>
<path d="M35.4155 25.8989V29.1539C35.4155 31.7346 34.3928 34.2095 32.5722 36.0343C30.7516 37.8591 28.2824 38.8842 25.7078 38.8842C23.1331 38.8842 20.6639 37.8591 18.8433 36.0343C17.0228 34.2095 16 31.7346 16 29.1539V18.7156L20.7433 14V29.1559C20.7433 30.4757 21.2663 31.7413 22.1973 32.6745C23.1284 33.6077 24.3911 34.132 25.7078 34.132C27.0244 34.132 28.2872 33.6077 29.2182 32.6745C30.1492 31.7413 30.6723 30.4757 30.6723 29.1559V24.6376C30.6728 24.515 30.6249 24.3971 30.5389 24.3098C30.4529 24.2225 30.336 24.1728 30.2136 24.1718H25.7078L21.411 19.4236H29.3449C29.851 19.4075 30.3543 19.5046 30.8184 19.7076C31.2825 19.9106 31.6957 20.2146 32.0281 20.5974L34.4393 23.4048C35.0646 24.0845 35.4129 24.9744 35.4155 25.8989Z" fill="white"/>
<path d="M32.8612 14H25.7108L21.4141 18.7543H29.4352C29.9401 18.7619 30.4408 18.6611 30.9036 18.4586C31.3664 18.2562 31.7806 17.9567 32.1184 17.5805L35.4368 14H32.8612Z" fill="#FEC84B"/>
</svg>
