<svg width="104" height="52" viewBox="0 0 104 52" fill="none" xmlns="http://www.w3.org/2000/svg">
<g clip-path="url(#clip0_248_29786)">
<path fill-rule="evenodd" clip-rule="evenodd" d="M53.9936 19.7955C53.8193 19.7962 53.6468 19.7616 53.4862 19.6938C53.3281 19.6239 53.1847 19.5247 53.0634 19.4013C53.0025 19.3374 52.946 19.2695 52.8943 19.1979C52.8468 19.1254 52.8058 19.0488 52.7716 18.9691C52.7386 18.8897 52.7131 18.8074 52.6955 18.7233C52.6785 18.6367 52.67 18.5487 52.6702 18.4605C52.6693 18.2872 52.7039 18.1156 52.7716 17.9562C52.8424 17.7973 52.9429 17.6535 53.0676 17.5324C53.1315 17.4736 53.2009 17.4211 53.2748 17.3756C53.3463 17.3278 53.4229 17.288 53.5031 17.2569C53.5813 17.2221 53.6638 17.1979 53.7483 17.1849C53.8319 17.168 53.9168 17.1595 54.002 17.1595C54.1746 17.1573 54.3458 17.1905 54.5052 17.2569C54.6642 17.3232 54.808 17.4213 54.928 17.5451C54.9896 17.6057 55.0448 17.6724 55.0929 17.7443C55.1395 17.8159 55.1805 17.891 55.2155 17.9689C55.2464 18.0486 55.2705 18.1309 55.2874 18.2147C55.3042 18.2984 55.3127 18.3836 55.3128 18.469C55.3132 18.6418 55.2802 18.8131 55.2155 18.9733C55.1506 19.1323 55.0542 19.2765 54.9322 19.3971C54.8731 19.4615 54.8063 19.5184 54.7335 19.5666C54.6642 19.6191 54.589 19.6632 54.5094 19.698C54.4302 19.7311 54.3481 19.7567 54.2642 19.7743C54.1778 19.7909 54.09 19.7994 54.002 19.7997M50.8351 19.7997C50.6609 19.8004 50.4883 19.7658 50.3278 19.698C50.1697 19.6281 50.0262 19.5289 49.9049 19.4056C49.8417 19.3439 49.785 19.2757 49.7358 19.2022C49.6854 19.1307 49.6429 19.054 49.609 18.9733C49.5759 18.894 49.5505 18.8117 49.5329 18.7275C49.5159 18.641 49.5074 18.553 49.5075 18.4647C49.5067 18.2915 49.5412 18.1198 49.609 17.9604C49.6814 17.8014 49.7833 17.6576 49.9092 17.5366C49.9715 17.4766 50.0395 17.4226 50.1121 17.3756C50.1827 17.3286 50.2578 17.2889 50.3362 17.2569C50.4144 17.2221 50.4969 17.1979 50.5814 17.1849C50.6664 17.1678 50.7528 17.1593 50.8394 17.1595C51.0106 17.1569 51.1805 17.1901 51.3383 17.2569C51.497 17.3237 51.6408 17.4217 51.7611 17.5451C51.8801 17.6682 51.976 17.8118 52.0444 17.9689C52.0786 18.0478 52.1041 18.1302 52.1205 18.2147C52.129 18.2993 52.129 18.3844 52.1205 18.469C52.1223 18.6415 52.0907 18.8128 52.0275 18.9733C51.9608 19.1314 51.8647 19.2752 51.7442 19.3971C51.6841 19.4605 51.6175 19.5173 51.5455 19.5666C51.4753 19.62 51.3986 19.6642 51.3172 19.698C51.2384 19.7323 51.1562 19.7579 51.0719 19.7743C50.991 19.7887 50.9089 19.7958 50.8267 19.7955L50.8351 19.7997ZM55.3085 23.0163H53.7441C53.3767 23.0143 53.0095 23.0355 52.6448 23.0799C52.3326 23.1167 52.0242 23.1805 51.7231 23.2706C51.4687 23.3431 51.2234 23.444 50.9916 23.5715C50.7851 23.6875 50.5947 23.8299 50.425 23.9953C50.2672 24.1515 50.1255 24.3233 50.0022 24.5081C49.8789 24.684 49.7754 24.8731 49.6935 25.0718C49.6086 25.2736 49.5448 25.4839 49.5033 25.699C49.4636 25.9299 49.4438 26.1639 49.4441 26.3982C49.4438 26.6298 49.4636 26.8609 49.5033 27.089C49.5442 27.3025 49.6065 27.5112 49.6893 27.712C49.7731 27.9071 49.8765 28.0931 49.998 28.2672C50.1227 28.447 50.2643 28.6144 50.4208 28.7673C50.5915 28.9242 50.782 29.0582 50.9874 29.1656C51.2221 29.292 51.4703 29.3915 51.7273 29.4623C52.0331 29.5494 52.3457 29.6103 52.6617 29.6445C53.035 29.6885 53.4106 29.7097 53.7864 29.7081H55.3085V23.0163ZM49.5582 13.2902L55.947 12.1968V14.0572L49.1819 15.2524L49.2158 13.3453L49.5582 13.2902ZM32.95 29.6022C33.2656 29.6682 33.5875 29.6994 33.9098 29.6954H48.1418L48.0446 29.5598C47.9374 29.4102 47.8413 29.253 47.757 29.0894C47.6685 28.9266 47.5908 28.7581 47.5245 28.585C47.4568 28.4113 47.3976 28.2333 47.3469 28.0595C47.2952 27.8825 47.2529 27.7028 47.2201 27.5213C47.1862 27.3391 47.1609 27.1526 47.144 26.9661C47.127 26.7797 47.1186 26.5847 47.1186 26.4025C47.1188 25.9088 47.1756 25.4168 47.2877 24.9361C47.4025 24.4676 47.5744 24.015 47.7993 23.5885C47.9224 23.3679 48.0639 23.158 48.2221 22.9612C48.3735 22.7606 48.5403 22.5721 48.7211 22.3976C48.909 22.2193 49.1096 22.055 49.3215 21.906C49.5425 21.7487 49.7742 21.6071 50.0149 21.4822C50.273 21.3439 50.5416 21.2263 50.8182 21.1304C51.1126 21.0285 51.4135 20.9464 51.7188 20.8846C52.0469 20.8162 52.3787 20.7667 52.7124 20.7363C53.0634 20.7024 53.427 20.6897 53.7991 20.6897H57.6425V31.9627H33.8845C33.0297 31.9854 32.1818 31.8038 31.411 31.433C30.8715 31.1556 30.4083 30.7495 30.0622 30.2506L30.0326 30.2887C29.9216 30.4266 29.8016 30.5568 29.6732 30.6786C29.522 30.8211 29.3609 30.9528 29.1912 31.0727C29.0203 31.1931 28.8408 31.3007 28.6542 31.3948C28.2614 31.5895 27.8449 31.7319 27.4154 31.8186C26.9451 31.9146 26.4662 31.9615 25.9863 31.9585H18.7561V29.6954H23.1703L19.8427 18.9775H22.2613L25.5888 29.6954H25.9863C26.4158 29.7038 26.844 29.6437 27.2547 29.5174C27.5795 29.4169 27.8741 29.2368 28.1118 28.9933C28.3496 28.7498 28.5229 28.4507 28.6162 28.1231C28.7424 27.7013 28.8024 27.2623 28.7938 26.822V16.5958H31.1192V26.733L32.95 29.6022ZM8.38021 35.5989C8.03226 35.5989 7.69824 35.4619 7.45002 35.2175C7.38658 35.1547 7.32859 35.0867 7.27666 35.0141C7.22708 34.9406 7.1846 34.8625 7.14982 34.781C7.08564 34.6162 7.05266 34.4408 7.05257 34.2639C7.05283 34.1772 7.06132 34.0906 7.07794 34.0054C7.09308 33.9207 7.11864 33.8381 7.15404 33.7596C7.18796 33.679 7.23049 33.6022 7.28089 33.5308C7.3312 33.4594 7.3878 33.3928 7.45002 33.3316C7.51236 33.2715 7.58032 33.2176 7.65297 33.1705C7.72437 33.1213 7.80094 33.0801 7.88129 33.0476C7.96064 33.0161 8.04274 32.992 8.12652 32.9756C8.21004 32.9587 8.29502 32.9502 8.38021 32.9502C8.55196 32.9513 8.7217 32.9873 8.87913 33.0561C9.11931 33.1559 9.32406 33.3257 9.46685 33.5435C9.51431 33.6145 9.55534 33.6897 9.58946 33.7681C9.62092 33.8476 9.64498 33.9299 9.66134 34.0139C9.67816 34.0976 9.68665 34.1828 9.68671 34.2682C9.68545 34.4336 9.65392 34.5973 9.59369 34.7513C9.52659 34.9091 9.43049 35.0529 9.3104 35.1751C9.24926 35.2386 9.18277 35.2968 9.11168 35.3489C9.0413 35.3973 8.96622 35.4385 8.88759 35.4718C8.8076 35.5066 8.72391 35.5322 8.63813 35.548C8.55456 35.5755 8.46794 35.5926 8.38021 35.5989ZM6.46063 31.9627C6.13929 31.9627 5.82218 31.9627 5.50506 31.9203C5.18795 31.878 4.89198 31.8483 4.61292 31.7932C4.32753 31.7357 4.04528 31.6636 3.76729 31.5771C3.50612 31.4897 3.25054 31.3864 3.00199 31.2677C2.7641 31.1544 2.53387 31.0256 2.3128 30.882C2.09983 30.7406 1.89773 30.5833 1.70818 30.4116C1.51964 30.2432 1.34436 30.0604 1.18389 29.8649C1.02694 29.6701 0.885566 29.4632 0.76107 29.2462C0.503557 28.803 0.311302 28.3248 0.190269 27.8264C0.126573 27.5668 0.078567 27.3036 0.0465117 27.0382C0.0153248 26.7567 -0.000202448 26.4738 1.99261e-06 26.1906C0.00393015 25.7277 0.0435106 25.2658 0.11839 24.809C0.205192 24.3019 0.323816 23.8009 0.473556 23.3088L0.558119 23.0206H2.92166L2.76099 23.5418C2.68911 23.7665 2.62569 23.9911 2.57495 24.1987C2.52421 24.4064 2.4777 24.6225 2.44388 24.8344C2.41005 25.0463 2.38468 25.2582 2.36777 25.4489C2.35086 25.6396 2.3424 25.8473 2.3424 26.0423C2.33273 26.5753 2.42161 27.1055 2.60455 27.6061C2.77136 28.0406 3.03787 28.4297 3.38253 28.7418C3.55743 28.9028 3.74875 29.0449 3.95333 29.1656C4.1752 29.2881 4.40896 29.3875 4.65098 29.4623C4.92748 29.5468 5.21025 29.6092 5.49661 29.6488C5.82201 29.6892 6.14964 29.709 6.47754 29.7081H14.5533V22.0374H16.8788V31.9627H6.46063Z" fill="#1570EF"/>
<path d="M5.49644 37.2944C8.69715 37.2944 10.8535 39.5745 10.8535 42.7233C10.8535 45.122 9.54278 47.0333 7.12005 48.0165L4.48591 49.0887C4.70517 49.5626 5.0625 49.9588 5.51083 50.2251C5.95916 50.4914 6.47745 50.6153 6.99743 50.5805C7.53921 50.5984 8.07595 50.4712 8.55234 50.2119C9.02873 49.9527 9.42754 49.5708 9.70768 49.1057L10.807 49.9533C10.4167 50.5773 9.87503 51.092 9.23248 51.4492C8.58992 51.8064 7.86751 51.9945 7.13274 51.996C6.35329 52.0199 5.58811 51.7829 4.95798 51.3225C4.32786 50.862 3.86869 50.2043 3.65296 49.4532L2.08854 50.0931L1.56425 48.8514L4.16457 47.8089C2.97179 47.6264 1.88782 47.0101 1.11961 46.0775C0.351399 45.1449 -0.0472286 43.9614 -0.000168115 42.7529C-0.000168115 39.549 2.338 37.2944 5.49644 37.2944ZM9.2595 42.736C9.2595 40.2483 7.6528 38.7565 5.48375 38.7565C3.31471 38.7565 1.59385 40.2949 1.59385 42.8038C1.59385 45.3127 3.23015 46.7706 5.43302 46.7706C7.63589 46.7706 9.23836 45.2873 9.23836 42.7529L9.2595 42.736Z" fill="#1570EF"/>
<path d="M17.6601 37.519L21.6895 48.0165H20.0405L19.1949 45.6475H14.3748L13.4996 48.0165H11.8379L15.8842 37.519H17.6601ZM18.6706 44.2998L16.7806 39.1168L14.8779 44.2913L18.6706 44.2998Z" fill="#1570EF"/>
<path d="M24.9215 37.519V46.6476H29.6824L29.5048 48.0165H23.6277H23.3613V37.519H24.9215Z" fill="#1570EF"/>
<path d="M32.8942 37.519V46.6476H37.6551L37.4775 48.0165H31.6004H31.334V37.519H32.8942Z" fill="#1570EF"/>
<path d="M44.4849 37.519L48.5186 48.0165H46.8654L46.0197 45.6475H41.1954L40.3202 48.0165H38.6543L42.7049 37.519H44.4849ZM45.4955 44.2998L43.6055 39.1168L41.7028 44.2913L45.4955 44.2998Z" fill="#1570EF"/>
<path d="M58.0987 40.1296C58.1073 40.6056 57.9749 41.0734 57.7183 41.474C57.4617 41.8745 57.0923 42.1898 56.6569 42.38C57.1784 42.5646 57.6279 42.9102 57.941 43.3671C58.254 43.824 58.4143 44.3687 58.3989 44.9228C58.3989 46.618 57.1305 47.9784 55.2024 47.9784H50.1836V37.519H55.2278C56.9952 37.519 58.0987 38.6548 58.0987 40.1296ZM54.898 41.8248C55.9254 41.8248 56.492 41.2569 56.492 40.3331C56.492 39.4092 55.8958 38.871 54.898 38.871H51.7438V41.8375L54.898 41.8248ZM54.7965 46.6561C56.065 46.6561 56.788 45.9102 56.788 44.8507C56.7994 44.6072 56.7591 44.364 56.6699 44.1371C56.5806 43.9103 56.4444 43.705 56.2702 43.5348C56.096 43.3646 55.8878 43.2334 55.6593 43.1497C55.4307 43.0661 55.1871 43.032 54.9445 43.0496H51.7438V46.6561H54.7965Z" fill="#1570EF"/>
<path d="M30.2356 12.7775V14.1167C30.2422 14.3518 30.201 14.5857 30.1145 14.8043C30.028 15.0228 29.898 15.2215 29.7325 15.3881C29.5735 15.5548 29.3816 15.6865 29.169 15.7748C28.9565 15.8631 28.7279 15.906 28.4979 15.9009C28.274 15.9034 28.0519 15.86 27.8454 15.7733C27.6389 15.6865 27.4523 15.5583 27.2971 15.3966C27.1448 15.5621 26.9587 15.6929 26.7515 15.7799C26.5443 15.8669 26.3208 15.9082 26.0963 15.9009C25.865 15.9068 25.635 15.8651 25.4205 15.7784C25.2059 15.6916 25.0114 15.5617 24.849 15.3966C24.6856 15.2288 24.5576 15.0298 24.4726 14.8113C24.3876 14.5929 24.3474 14.3596 24.3543 14.1252V12.769H25.4198V14.1252C25.4142 14.2198 25.4273 14.3146 25.4585 14.4041C25.4898 14.4936 25.5384 14.576 25.6016 14.6465C25.6654 14.7125 25.7426 14.764 25.8279 14.7976C25.9132 14.8312 26.0047 14.8462 26.0963 14.8414C26.1897 14.8452 26.2829 14.829 26.3697 14.794C26.4564 14.7589 26.5348 14.7057 26.5994 14.638C26.6645 14.5699 26.7152 14.4895 26.7486 14.4014C26.782 14.3133 26.7974 14.2194 26.7939 14.1252V12.769H27.8383V14.1252C27.8282 14.3147 27.8902 14.5009 28.0116 14.6465C28.0742 14.7112 28.1502 14.7614 28.2342 14.7936C28.3182 14.8258 28.4082 14.8392 28.4979 14.8329C28.5921 14.8385 28.6863 14.824 28.7745 14.7904C28.8627 14.7568 28.9428 14.7049 29.0095 14.638C29.1311 14.4929 29.1904 14.3055 29.1744 14.1167V12.7775H30.2356Z" fill="#1570EF"/>
<path d="M101.865 13.2312C101.97 13.245 102.076 13.245 102.182 13.2312C102.222 13.2189 102.258 13.1936 102.283 13.1591C102.306 13.1177 102.318 13.0709 102.317 13.0235C102.319 12.9978 102.316 12.9718 102.308 12.9473C102.3 12.9227 102.288 12.9 102.271 12.8806C102.254 12.8612 102.233 12.8454 102.209 12.8343C102.186 12.8232 102.161 12.8169 102.135 12.8158C102.106 12.8158 101.928 12.8158 101.602 12.8158V13.2396L101.865 13.2312ZM102.824 14.244H102.402L102.144 13.8626C102.088 13.7719 102.026 13.6855 101.958 13.6041C101.928 13.5722 101.892 13.5476 101.852 13.5321C101.77 13.5142 101.686 13.5071 101.602 13.5109V14.244H101.247V12.4895H101.991C102.134 12.4826 102.277 12.4983 102.414 12.5361C102.498 12.5695 102.569 12.6289 102.617 12.7056C102.669 12.7881 102.695 12.8838 102.693 12.9811C102.698 13.1005 102.657 13.2171 102.579 13.3074C102.486 13.3997 102.363 13.4567 102.232 13.4685C102.301 13.5089 102.364 13.5588 102.418 13.6168C102.495 13.7063 102.563 13.8028 102.621 13.905L102.824 14.244ZM103.061 12.2352C102.762 11.9368 102.357 11.7694 101.934 11.7694C101.512 11.7694 101.107 11.9368 100.808 12.2352C100.51 12.5361 100.342 12.9429 100.342 13.3668C100.331 13.5832 100.364 13.7997 100.439 14.003C100.514 14.2063 100.63 14.3922 100.779 14.5493C100.927 14.7065 101.107 14.8316 101.305 14.9171C101.504 15.0027 101.718 15.0468 101.934 15.0468C102.151 15.0468 102.365 15.0027 102.563 14.9171C102.762 14.8316 102.941 14.7065 103.09 14.5493C103.239 14.3922 103.355 14.2063 103.429 14.003C103.504 13.7997 103.537 13.5832 103.526 13.3668C103.526 12.9429 103.359 12.5361 103.061 12.2352ZM101.936 11.3198C102.409 11.3198 102.867 11.4838 103.232 11.7841C103.597 12.0843 103.847 12.5021 103.94 12.9665C104.032 13.4308 103.961 13.9128 103.738 14.3305C103.516 14.7482 103.156 15.0757 102.72 15.2572C102.284 15.4388 101.798 15.4632 101.346 15.3262C100.894 15.1892 100.503 14.8994 100.24 14.506C99.9772 14.1127 99.8584 13.6402 99.9041 13.169C99.9497 12.6977 100.157 12.2569 100.49 11.9216C100.68 11.7303 100.905 11.5786 101.153 11.4753C101.401 11.372 101.668 11.3192 101.936 11.3198Z" fill="#1570EF"/>
<path d="M103.974 24.7879V31.5687C103.974 36.9447 101.843 42.1005 98.0506 45.9019C94.258 49.7034 89.1142 51.839 83.7506 51.839C78.3871 51.839 73.2432 49.7034 69.4506 45.9019C65.658 42.1005 63.5273 36.9447 63.5273 31.5687V9.82364L73.4085 0V31.5729C73.4085 34.3222 74.4982 36.9589 76.4377 38.9029C78.3772 40.8469 81.0077 41.939 83.7506 41.939C86.4935 41.939 89.1241 40.8469 91.0636 38.9029C93.0031 36.9589 94.0927 34.3222 94.0927 31.5729V22.1604C94.0938 21.9049 93.9939 21.6593 93.8148 21.4774C93.6358 21.2955 93.3921 21.1921 93.1371 21.1899H83.7506L74.7996 11.2985H91.3275C92.3818 11.265 93.4303 11.4671 94.3971 11.8901C95.3639 12.313 96.2247 12.9462 96.9171 13.7438L101.94 19.5922C103.243 21.008 103.968 22.862 103.974 24.7879Z" fill="#1570EF"/>
<path d="M98.6476 0H83.7518L74.8008 9.90416H91.5105C92.5623 9.92004 93.6053 9.71003 94.5695 9.28825C95.5336 8.86647 96.3965 8.24269 97.1001 7.45884L104.013 0H98.6476Z" fill="#FEC84B"/>
</g>
<defs>
<clipPath id="clip0_248_29786">
<rect width="104" height="52" fill="white"/>
</clipPath>
</defs>
</svg>
