<svg width="28" height="33" viewBox="0 0 28 33" fill="none" xmlns="http://www.w3.org/2000/svg">
<g filter="url(#filter0_d_2407_314124)">
<path d="M22.4066 6.35109C22.4571 6.35774 22.5083 6.35774 22.5588 6.35109C22.5784 6.34522 22.5955 6.33307 22.6076 6.31651C22.6186 6.29664 22.6242 6.27417 22.6238 6.25141C22.6249 6.23905 22.6235 6.2266 22.6197 6.21481C22.6158 6.20302 22.6096 6.19213 22.6015 6.18281C22.5933 6.17349 22.5833 6.16593 22.5722 6.16058C22.561 6.15524 22.5489 6.15223 22.5365 6.15172C22.5223 6.15172 22.4371 6.15172 22.2808 6.15172V6.35516L22.4066 6.35109ZM22.8674 6.8373H22.6644L22.5406 6.65421C22.514 6.61066 22.4841 6.56917 22.4513 6.53011C22.4373 6.51481 22.4199 6.50297 22.4005 6.49553C22.3612 6.48698 22.321 6.48356 22.2808 6.48536V6.8373H22.1103V5.99508H22.4675C22.5359 5.99177 22.6044 5.99932 22.6705 6.01746C22.7108 6.03346 22.7449 6.06197 22.7679 6.09883C22.7927 6.13841 22.8053 6.18436 22.8044 6.23106C22.8067 6.28836 22.7871 6.34436 22.7496 6.38771C22.7048 6.43202 22.6459 6.45934 22.5832 6.46502C22.6162 6.48442 22.6462 6.50839 22.6725 6.53622C22.7092 6.57919 22.7418 6.6255 22.7699 6.67455L22.8674 6.8373ZM22.981 5.87302C22.8373 5.72978 22.6428 5.64938 22.4401 5.64938C22.2374 5.64938 22.043 5.72978 21.8992 5.87302C21.7562 6.01745 21.6759 6.2127 21.676 6.41619C21.6706 6.5201 21.6864 6.624 21.7224 6.72159C21.7584 6.81918 21.8138 6.90841 21.8853 6.98385C21.9568 7.05929 22.0428 7.11936 22.1382 7.16041C22.2336 7.20146 22.3363 7.22263 22.4401 7.22263C22.5439 7.22263 22.6466 7.20146 22.742 7.16041C22.8374 7.11936 22.9234 7.05929 22.9949 6.98385C23.0664 6.90841 23.1218 6.81918 23.1578 6.72159C23.1938 6.624 23.2096 6.5201 23.2043 6.41619C23.2043 6.2127 23.124 6.01745 22.981 5.87302ZM22.4411 5.4336C22.6679 5.43357 22.8876 5.51232 23.0629 5.65644C23.2382 5.80056 23.3583 6.00114 23.4026 6.22402C23.447 6.4469 23.4129 6.6783 23.3061 6.8788C23.1994 7.07931 23.0266 7.23652 22.8172 7.32367C22.6078 7.41082 22.3747 7.42252 22.1576 7.35677C21.9406 7.29102 21.753 7.15189 21.6268 6.96307C21.5006 6.77426 21.4436 6.54743 21.4655 6.32123C21.4874 6.09502 21.5869 5.88343 21.747 5.72248C21.8378 5.63065 21.946 5.55783 22.0651 5.50824C22.1843 5.45865 22.3121 5.43328 22.4411 5.4336Z" fill="white"/>
<path d="M23.4155 11.8989V15.1539C23.4155 17.7346 22.3928 20.2095 20.5722 22.0343C18.7516 23.8591 16.2824 24.8842 13.7078 24.8842C11.1331 24.8842 8.6639 23.8591 6.84334 22.0343C5.02278 20.2095 4 17.7346 4 15.1539V4.71563L8.74327 0V15.1559C8.74327 16.4757 9.26631 17.7413 10.1973 18.6745C11.1284 19.6077 12.3911 20.132 13.7078 20.132C15.0244 20.132 16.2872 19.6077 17.2182 18.6745C18.1492 17.7413 18.6723 16.4757 18.6723 15.1559V10.6376C18.6728 10.515 18.6249 10.3971 18.5389 10.3098C18.4529 10.2225 18.336 10.1728 18.2136 10.1718H13.7078L9.41102 5.42359H17.3449C17.851 5.40755 18.3543 5.50455 18.8184 5.70758C19.2825 5.9106 19.6957 6.21455 20.0281 6.59741L22.4393 9.40482C23.0646 10.0845 23.4129 10.9744 23.4155 11.8989Z" fill="white"/>
<path d="M20.8612 0H13.7108L9.41406 4.75429H17.4352C17.9401 4.76191 18.4408 4.6611 18.9036 4.45863C19.3664 4.25617 19.7806 3.95673 20.1184 3.58046L23.4368 0H20.8612Z" fill="#FEC84B"/>
</g>
<defs>
<filter id="filter0_d_2407_314124" x="0" y="0" width="27.4375" height="32.8828" filterUnits="userSpaceOnUse" color-interpolation-filters="sRGB">
<feFlood flood-opacity="0" result="BackgroundImageFix"/>
<feColorMatrix in="SourceAlpha" type="matrix" values="0 0 0 0 0 0 0 0 0 0 0 0 0 0 0 0 0 0 127 0" result="hardAlpha"/>
<feOffset dy="4"/>
<feGaussianBlur stdDeviation="2"/>
<feComposite in2="hardAlpha" operator="out"/>
<feColorMatrix type="matrix" values="0 0 0 0 0 0 0 0 0 0 0 0 0 0 0 0 0 0 0.25 0"/>
<feBlend mode="normal" in2="BackgroundImageFix" result="effect1_dropShadow_2407_314124"/>
<feBlend mode="normal" in="SourceGraphic" in2="effect1_dropShadow_2407_314124" result="shape"/>
</filter>
</defs>
</svg>
