<svg width="405" height="438" viewBox="0 0 405 438" fill="none" xmlns="http://www.w3.org/2000/svg">
<path d="M206.591 375.942C298.401 375.942 372.719 301.947 372.719 210.46C372.719 118.973 298.481 44.8965 206.591 44.8965C115.104 44.8965 40.5444 118.892 40.5444 210.379C40.5444 301.866 114.782 375.942 206.591 375.942Z" fill="#F1F3F9" stroke="#D6DCE8" stroke-width="2" stroke-miterlimit="10" stroke-linejoin="round"/>
<path d="M387.953 399.883C422.049 364.578 397.303 304.688 347.57 304.688C324.92 304.688 305.494 318.069 296.547 337.333C288.647 337.817 281.312 340.316 265.433 350.794L262.854 294.048H243.347L241.735 329.353C235.367 324.436 229.241 325.001 224.969 325.323L226.017 325.162L224.324 290.26H191.84L189.825 331.771C184.344 327.58 182.651 329.595 180.959 329.595C177.654 329.595 174.51 330.482 171.85 331.933L170.077 293.968H150.57L149.2 324.033C140.334 318.794 129.935 315.731 118.893 315.731C105.512 315.731 93.1794 320.164 83.1844 327.58C39.7381 306.945 -7.98022 347.006 4.91663 393.435L36.1109 413.425C35.3854 413.908 34.66 414.392 33.9345 414.876L36.1109 413.425C26.0352 422.856 55.9398 395.611 64.0809 399.319C64.7258 400.77 65.3706 402.14 66.0961 403.51L64.7258 399.722C65.6124 400.447 66.0961 401.656 66.0961 403.51C66.0961 403.51 66.0961 403.591 66.1767 403.591C58.1161 403.994 50.5392 405.928 43.6072 409.233L69.5621 404.558C91.7286 409.314 213.281 425.999 213.523 428.095L211.75 424.79C212.475 424.871 213.281 424.951 214.087 425.032C218.037 430.835 223.841 435.349 230.612 437.526C225.13 434.704 220.536 430.513 217.231 425.354C243.911 427.934 278.652 426.16 291.388 424.79C303.076 426.886 315.328 424.226 325.323 416.971C327.418 415.44 329.434 413.666 331.288 411.732C343.62 411.651 366.27 415.198 365.948 409.717L388.195 413.667C381.908 410.765 375.137 408.83 367.882 408.185L387.953 399.883ZM323.549 413.747C323.63 413.505 323.711 413.344 323.952 413.102L323.549 413.747Z" fill="white"/>
<path d="M171.851 331.933L170.077 294.049H150.571L149.201 324.034" fill="white"/>
<path d="M171.851 331.933L170.077 294.049H150.571L149.201 324.034" stroke="#AAB2C5" stroke-width="2" stroke-miterlimit="10" stroke-linecap="round" stroke-linejoin="round"/>
<path d="M265.514 352.246L262.854 294.049H243.348L241.736 329.435" fill="white"/>
<path d="M265.514 352.246L262.854 294.049H243.348L241.736 329.435" stroke="#AAB2C5" stroke-width="2" stroke-miterlimit="10" stroke-linecap="round" stroke-linejoin="round"/>
<path d="M226.017 325.081L224.244 290.26H191.841L189.826 331.207L189.906 331.852" fill="white"/>
<path d="M226.017 325.081L224.244 290.26H191.841L189.826 331.207L189.906 331.852" stroke="#AAB2C5" stroke-width="2" stroke-miterlimit="10" stroke-linecap="round" stroke-linejoin="round"/>
<path d="M50.6201 384.245C53.4413 383.278 56.4237 382.633 59.5673 382.311" stroke="#AAB2C5" stroke-width="2" stroke-miterlimit="10" stroke-linecap="round" stroke-linejoin="round"/>
<path d="M220.859 277.846H194.259L188.778 281.554C187.649 282.36 187.004 283.569 187.004 284.939V288.566H228.919V285.1C228.919 283.649 228.194 282.36 226.985 281.634L220.859 277.846Z" fill="white" stroke="#AAB2C5" stroke-width="2" stroke-miterlimit="10" stroke-linecap="round" stroke-linejoin="round"/>
<path d="M230.693 290.261C230.693 291.147 229.967 291.873 229.08 291.873H186.521C185.634 291.873 184.909 291.147 184.909 290.261C184.909 289.374 185.634 288.648 186.521 288.648H229.08C229.967 288.648 230.693 289.374 230.693 290.261Z" fill="white" stroke="#AAB2C5" stroke-width="2" stroke-miterlimit="10" stroke-linecap="round" stroke-linejoin="round"/>
<path d="M138.077 53.0376H137.432C136.384 53.0376 135.578 52.2315 135.578 51.1836V50.5388C135.578 49.7327 134.933 49.0879 134.127 49.0879C133.321 49.0879 132.676 49.7327 132.676 50.5388V51.1836C132.676 52.2315 131.87 53.0376 130.822 53.0376H130.177C129.371 53.0376 128.727 53.6824 128.727 54.4884C128.727 55.2945 129.371 55.9393 130.177 55.9393H130.822C131.87 55.9393 132.676 56.7454 132.676 57.7933V58.4381C132.676 59.2442 133.321 59.889 134.127 59.889C134.933 59.889 135.578 59.2442 135.578 58.4381V57.7933C135.578 56.7454 136.384 55.9393 137.432 55.9393H138.077C138.883 55.9393 139.528 55.2945 139.528 54.4884C139.528 53.763 138.883 53.0376 138.077 53.0376Z" fill="#D6DDE8"/>
<path d="M96.9681 27.3244H96.4039C95.5978 27.3244 94.8724 26.6795 94.8724 25.7928V25.2286C94.8724 24.5838 94.3082 24.0195 93.6633 24.0195C93.0185 24.0195 92.4542 24.5838 92.4542 25.2286V25.7928C92.4542 26.5989 91.8094 27.3244 90.9227 27.3244H90.3585C89.7137 27.3244 89.1494 27.8886 89.1494 28.5334C89.1494 29.1783 89.7137 29.7425 90.3585 29.7425H90.9227C91.7288 29.7425 92.4542 30.3874 92.4542 31.274V31.8382C92.4542 32.4831 93.0185 33.0473 93.6633 33.0473C94.3082 33.0473 94.8724 32.4831 94.8724 31.8382V31.274C94.8724 30.468 95.5172 29.7425 96.4039 29.7425H96.9681C97.613 29.7425 98.1772 29.1783 98.1772 28.5334C98.1772 27.8886 97.613 27.3244 96.9681 27.3244Z" fill="#D6DDE8"/>
<path d="M46.9125 197.805H46.3482C45.5422 197.805 44.8167 197.16 44.8167 196.273V195.709C44.8167 195.064 44.2525 194.5 43.6076 194.5C42.9628 194.5 42.3986 195.064 42.3986 195.709V196.273C42.3986 197.079 41.7537 197.805 40.8671 197.805H40.3028C39.658 197.805 39.0938 198.369 39.0938 199.014C39.0938 199.659 39.658 200.223 40.3028 200.223H40.8671C41.6731 200.223 42.3986 200.868 42.3986 201.754V202.319C42.3986 202.964 42.9628 203.528 43.6076 203.528C44.2525 203.528 44.8167 202.964 44.8167 202.319V201.754C44.8167 200.948 45.4616 200.223 46.3482 200.223H46.9125C47.5573 200.223 48.1215 199.659 48.1215 199.014C48.1215 198.288 47.5573 197.805 46.9125 197.805Z" fill="#D6DDE8"/>
<path d="M179.589 3.22421H179.024C178.218 3.22421 177.493 2.57937 177.493 1.69271V1.20908C177.493 0.564237 176.929 0 176.284 0C175.639 0 175.075 0.564237 175.075 1.20908V1.77332C175.075 2.57937 174.43 3.30482 173.543 3.30482H172.979C172.334 3.30482 171.77 3.86905 171.77 4.5139C171.77 5.15874 172.334 5.72298 172.979 5.72298H173.543C174.349 5.72298 175.075 6.36782 175.075 7.25448V7.81871C175.075 8.46356 175.639 9.02779 176.284 9.02779C176.929 9.02779 177.493 8.46356 177.493 7.81871V7.09327C177.493 6.28721 178.138 5.56177 179.024 5.56177H179.589C180.234 5.56177 180.798 4.99753 180.798 4.35269C180.798 3.78845 180.314 3.22421 179.589 3.22421Z" fill="#D6DDE8"/>
<path d="M391.339 98.8224H390.774C389.968 98.8224 389.243 98.1776 389.243 97.2909V96.7267C389.243 96.0818 388.679 95.5176 388.034 95.5176C387.389 95.5176 386.825 96.0818 386.825 96.7267V97.2909C386.825 98.0969 386.18 98.8224 385.293 98.8224H384.729C384.084 98.8224 383.52 99.3866 383.52 100.031C383.52 100.676 384.084 101.241 384.729 101.241H385.293C386.099 101.241 386.825 101.885 386.825 102.772V103.336C386.825 103.981 387.389 104.545 388.034 104.545C388.679 104.545 389.243 103.981 389.243 103.336V102.772C389.243 101.966 389.888 101.241 390.774 101.241H391.339C391.984 101.241 392.548 100.676 392.548 100.031C392.548 99.3866 391.984 98.8224 391.339 98.8224Z" fill="#D6DDE8"/>
<path d="M346.603 273.736H346.039C345.233 273.736 344.507 273.092 344.507 272.205V271.641C344.507 270.996 343.943 270.432 343.298 270.432C342.653 270.432 342.089 270.996 342.089 271.641V272.205C342.089 273.011 341.444 273.736 340.557 273.736H340.154C339.51 273.736 338.945 274.301 338.945 274.946C338.945 275.59 339.51 276.155 340.154 276.155H340.719C341.525 276.155 342.25 276.799 342.25 277.686V278.25C342.25 278.895 342.814 279.459 343.459 279.459C344.104 279.459 344.668 278.895 344.668 278.25V277.686C344.668 276.88 345.313 276.155 346.2 276.155H346.764C347.409 276.155 347.973 275.59 347.973 274.946C347.812 274.301 347.248 273.736 346.603 273.736Z" fill="#D6DDE8"/>
<path d="M41.5921 285.988H41.1085C40.3024 285.988 39.577 285.344 39.577 284.457V283.893C39.577 283.248 39.0127 282.684 38.3679 282.684C37.7231 282.684 37.1588 283.248 37.1588 283.893V284.457C37.1588 285.263 36.514 285.988 35.6273 285.988H35.0631C34.4182 285.988 33.854 286.553 33.854 287.197C33.854 287.842 34.4182 288.407 35.0631 288.407H35.6273C36.4334 288.407 37.1588 289.051 37.1588 289.938V290.502C37.1588 291.147 37.7231 291.711 38.3679 291.711C39.0127 291.711 39.577 291.147 39.577 290.502V289.938C39.577 289.132 40.2218 288.407 41.1085 288.407H41.6727C42.3176 288.407 42.8818 287.842 42.8818 287.197C42.8012 286.553 42.237 285.988 41.5921 285.988Z" fill="#D6DDE8"/>
<path d="M295.176 142.43H294.532C293.484 142.43 292.678 141.624 292.678 140.576V139.931C292.678 139.125 292.033 138.48 291.227 138.48C290.421 138.48 289.776 139.125 289.776 139.931V140.576C289.776 141.624 288.97 142.43 287.922 142.43H287.277C286.471 142.43 285.826 143.075 285.826 143.881C285.826 144.687 286.471 145.332 287.277 145.332H287.922C288.97 145.332 289.776 146.138 289.776 147.186V147.831C289.776 148.637 290.421 149.282 291.227 149.282C292.033 149.282 292.678 148.637 292.678 147.831V147.186C292.678 146.138 293.484 145.332 294.532 145.332H295.176C295.982 145.332 296.627 144.687 296.627 143.881C296.627 143.075 295.982 142.43 295.176 142.43Z" fill="#D6DDE8"/>
<path d="M313.474 253.422H312.829C311.781 253.422 310.975 252.616 310.975 251.568V250.924C310.975 250.117 310.33 249.473 309.524 249.473C308.718 249.473 308.073 250.117 308.073 250.924V251.568C308.073 252.616 307.267 253.422 306.219 253.422H305.494C304.688 253.422 304.043 254.067 304.043 254.873C304.043 255.679 304.688 256.324 305.494 256.324H306.139C307.187 256.324 307.993 257.13 307.993 258.178V258.823C307.993 259.629 308.637 260.274 309.444 260.274C310.25 260.274 310.894 259.629 310.894 258.823V258.178C310.894 257.13 311.7 256.324 312.748 256.324H313.393C314.199 256.324 314.844 255.679 314.844 254.873C314.925 254.067 314.28 253.422 313.474 253.422Z" fill="#D6DDE8"/>
<path d="M384.084 140.091H383.681C383.036 140.091 382.553 139.608 382.553 138.963V138.641C382.553 138.157 382.15 137.754 381.666 137.754C381.183 137.754 380.779 138.157 380.779 138.641V139.044C380.779 139.688 380.296 140.172 379.651 140.172H379.248C378.764 140.172 378.361 140.575 378.361 141.059C378.361 141.542 378.764 141.945 379.248 141.945H379.651C380.296 141.945 380.779 142.429 380.779 143.074V143.477C380.779 143.961 381.183 144.364 381.666 144.364C382.15 144.364 382.553 143.961 382.553 143.477V143.074C382.553 142.429 383.036 141.945 383.681 141.945H384.084C384.568 141.945 384.971 141.542 384.971 141.059C384.971 140.494 384.568 140.091 384.084 140.091Z" fill="#D6DDE8"/>
<path d="M346.361 160.083H346.039C345.555 160.083 345.152 159.68 345.152 159.196V158.874C345.152 158.471 344.83 158.148 344.427 158.148C344.024 158.148 343.701 158.471 343.701 158.874V159.196C343.701 159.68 343.298 160.083 342.814 160.083H342.492C342.089 160.083 341.767 160.405 341.767 160.808C341.767 161.211 342.089 161.534 342.492 161.534H342.814C343.298 161.534 343.701 161.937 343.701 162.421V162.743C343.701 163.146 344.024 163.468 344.427 163.468C344.83 163.468 345.152 163.146 345.152 162.743V162.421C345.152 161.937 345.555 161.534 346.039 161.534H346.361C346.764 161.534 347.087 161.211 347.087 160.808C347.087 160.405 346.764 160.083 346.361 160.083Z" fill="#D6DDE8"/>
<path d="M269.141 56.5048H268.818C268.335 56.5048 267.932 56.1018 267.932 55.6182V55.2958C267.932 54.8927 267.609 54.5703 267.206 54.5703C266.803 54.5703 266.481 54.8927 266.481 55.2958V55.6182C266.481 56.1018 266.078 56.5048 265.594 56.5048H265.272C264.869 56.5048 264.546 56.8273 264.546 57.2303C264.546 57.6333 264.869 57.9557 265.272 57.9557H265.594C266.078 57.9557 266.481 58.3588 266.481 58.8424V59.1648C266.481 59.5678 266.803 59.8903 267.206 59.8903C267.609 59.8903 267.932 59.5678 267.932 59.1648V58.8424C267.932 58.3588 268.335 57.9557 268.818 57.9557H269.141C269.544 57.9557 269.866 57.6333 269.866 57.2303C269.786 56.8273 269.544 56.5048 269.141 56.5048Z" fill="#D6DDE8"/>
<path d="M349.021 53.8447H348.699C348.215 53.8447 347.812 53.4417 347.812 52.958V52.6356C347.812 52.2326 347.49 51.9102 347.087 51.9102C346.684 51.9102 346.361 52.2326 346.361 52.6356V52.958C346.361 53.4417 345.958 53.8447 345.475 53.8447H345.152C344.749 53.8447 344.427 54.1671 344.427 54.5701C344.427 54.9732 344.749 55.2956 345.152 55.2956H345.475C345.958 55.2956 346.361 55.6986 346.361 56.1822V56.5047C346.361 56.9077 346.684 57.2301 347.087 57.2301C347.49 57.2301 347.812 56.9077 347.812 56.5047V56.1822C347.812 55.6986 348.215 55.2956 348.699 55.2956H349.021C349.424 55.2956 349.747 54.9732 349.747 54.5701C349.747 54.1671 349.424 53.8447 349.021 53.8447Z" fill="#D6DDE8"/>
<path d="M25.4712 120.907H25.0682C24.4233 120.907 23.8591 120.343 23.8591 119.698V119.295C23.8591 118.731 23.4561 118.328 22.8918 118.328C22.3276 118.328 21.9246 118.731 21.9246 119.295V119.698C21.9246 120.343 21.3603 120.907 20.7155 120.907H20.3125C19.7482 120.907 19.3452 121.311 19.3452 121.875C19.3452 122.439 19.7482 122.842 20.3125 122.842H20.7155C21.3603 122.842 21.9246 123.406 21.9246 124.051V124.454C21.9246 125.018 22.3276 125.421 22.8918 125.421C23.4561 125.421 23.8591 125.018 23.8591 124.454V124.051C23.8591 123.406 24.4233 122.842 25.0682 122.842H25.4712C26.0355 122.842 26.4385 122.439 26.4385 121.875C26.4385 121.391 25.9549 120.907 25.4712 120.907Z" fill="#D6DDE8"/>
<path d="M103.9 236.9H103.497C102.853 236.9 102.288 236.335 102.288 235.691V235.288C102.288 234.723 101.885 234.32 101.321 234.32C100.757 234.32 100.354 234.723 100.354 235.288V235.691C100.354 236.335 99.7895 236.9 99.1447 236.9H98.7417C98.1774 236.9 97.7744 237.303 97.7744 237.867C97.7744 238.431 98.1774 238.834 98.7417 238.834H99.1447C99.7895 238.834 100.354 239.398 100.354 240.043V240.446C100.354 241.011 100.757 241.414 101.321 241.414C101.885 241.414 102.288 241.011 102.288 240.446V240.043C102.288 239.398 102.853 238.834 103.497 238.834H103.9C104.465 238.834 104.868 238.431 104.868 237.867C104.868 237.303 104.384 236.9 103.9 236.9Z" fill="#D6DDE8"/>
<path d="M399.722 277.04H399.319C398.674 277.04 398.11 276.476 398.11 275.831V275.428C398.11 274.864 397.707 274.461 397.142 274.461C396.578 274.461 396.175 274.864 396.175 275.428V275.831C396.175 276.476 395.611 277.04 394.966 277.04H394.563C393.999 277.04 393.596 277.443 393.596 278.008C393.596 278.572 393.999 278.975 394.563 278.975H394.966C395.611 278.975 396.175 279.539 396.175 280.184V280.587C396.175 281.151 396.578 281.554 397.142 281.554C397.707 281.554 398.11 281.151 398.11 280.587V280.184C398.11 279.539 398.674 278.975 399.319 278.975H399.722C400.286 278.975 400.689 278.572 400.689 278.008C400.689 277.524 400.205 277.04 399.722 277.04Z" fill="#D6DDE8"/>
<path d="M17.4912 69.5625H17.1688C16.6045 69.5625 16.2015 69.1595 16.2015 68.5953V68.2728C16.2015 67.8698 15.8791 67.4668 15.3954 67.4668C14.9924 67.4668 14.5894 67.7892 14.5894 68.2728V68.5953C14.5894 69.1595 14.1864 69.5625 13.6221 69.5625H13.2997C12.8967 69.5625 12.4937 69.885 12.4937 70.3686C12.4937 70.7716 12.8161 71.1746 13.2997 71.1746H13.7027C14.267 71.1746 14.67 71.5777 14.67 72.1419V72.4643C14.67 72.8674 14.9924 73.2704 15.476 73.2704C15.8791 73.2704 16.2821 72.948 16.2821 72.4643V72.1419C16.2821 71.5777 16.6851 71.1746 17.2494 71.1746H17.5718C17.9748 71.1746 18.3778 70.8522 18.3778 70.3686C18.2972 69.885 17.8942 69.5625 17.4912 69.5625Z" fill="#D6DDE8"/>
<path d="M47.8794 33.209H47.5569C46.9927 33.209 46.5897 32.806 46.5897 32.2418V31.9193C46.5897 31.5163 46.2673 31.1133 45.7836 31.1133C45.3806 31.1133 44.9776 31.4357 44.9776 31.9193V32.2418C44.9776 32.806 44.5745 33.209 44.0103 33.209H43.6879C43.2849 33.209 42.8818 33.5314 42.8818 34.0151C42.8818 34.4181 43.2043 34.8211 43.6879 34.8211H44.0103C44.5745 34.8211 44.9776 35.2242 44.9776 35.7884V36.1108C44.9776 36.5138 45.3 36.9169 45.7836 36.9169C46.1867 36.9169 46.5897 36.5944 46.5897 36.1108V35.7884C46.5897 35.2242 46.9927 34.8211 47.5569 34.8211H47.8794C48.2824 34.8211 48.6854 34.4987 48.6854 34.0151C48.6854 33.5314 48.363 33.209 47.8794 33.209Z" fill="#D6DDE8"/>
<path d="M4.91692 191.275H4.5945C4.03027 191.275 3.62724 190.872 3.62724 190.308V189.986C3.62724 189.583 3.30482 189.18 2.82119 189.18C2.41816 189.18 2.01513 189.502 2.01513 189.986V190.308C2.01513 190.872 1.61211 191.275 1.04787 191.275H0.806053C0.403027 191.275 0 191.598 0 192.081C0 192.485 0.322421 192.888 0.806053 192.888H1.12847C1.69271 192.888 2.09574 193.291 2.09574 193.855V194.177C2.09574 194.58 2.41816 194.983 2.90179 194.983C3.30482 194.983 3.70784 194.661 3.70784 194.177V193.855C3.70784 193.291 4.11087 192.888 4.67511 192.888H4.99753C5.40056 192.888 5.80358 192.565 5.80358 192.081C5.72298 191.598 5.40056 191.275 4.91692 191.275Z" fill="#D6DDE8"/>
<path d="M123.246 94.3887H122.923C122.359 94.3887 121.956 93.9857 121.956 93.4214V93.099C121.956 92.696 121.633 92.293 121.15 92.293C120.747 92.293 120.344 92.6154 120.344 93.099V93.4214C120.344 93.9857 119.941 94.3887 119.377 94.3887H119.054C118.651 94.3887 118.248 94.7111 118.248 95.1948C118.248 95.5978 118.57 96.0008 119.054 96.0008H119.377C119.941 96.0008 120.344 96.4038 120.344 96.9681V97.2905C120.344 97.6935 120.666 98.0965 121.15 98.0965C121.553 98.0965 121.956 97.7741 121.956 97.2905V96.9681C121.956 96.4038 122.359 96.0008 122.923 96.0008H123.246C123.649 96.0008 124.052 95.6784 124.052 95.1948C124.052 94.7111 123.649 94.3887 123.246 94.3887Z" fill="#D6DDE8"/>
<path d="M101.563 188.375H101.241C100.676 188.375 100.273 187.972 100.273 187.408V187.085C100.273 186.682 99.9509 186.279 99.4672 186.279C99.0642 186.279 98.6612 186.602 98.6612 187.085V187.408C98.6612 187.972 98.2581 188.375 97.6939 188.375H97.3715C96.9685 188.375 96.5654 188.697 96.5654 189.181C96.5654 189.584 96.8879 189.987 97.3715 189.987H97.6939C98.2581 189.987 98.6612 190.39 98.6612 190.954V191.277C98.6612 191.68 98.9836 192.083 99.4672 192.083C99.8702 192.083 100.273 191.76 100.273 191.277V190.954C100.273 190.39 100.676 189.987 101.241 189.987H101.563C101.966 189.987 102.369 189.665 102.369 189.181C102.288 188.697 101.966 188.375 101.563 188.375Z" fill="#D6DDE8"/>
<path d="M240.687 22.2465C238.188 22.2465 236.173 20.2314 236.173 17.7326C236.173 15.2339 238.188 13.2188 240.687 13.2188C243.186 13.2188 245.201 15.2339 245.201 17.7326C245.201 20.2314 243.105 22.2465 240.687 22.2465ZM240.687 15.7175C239.559 15.7175 238.591 16.6042 238.591 17.8133C238.591 19.0223 239.478 19.909 240.687 19.909C241.816 19.909 242.783 19.0223 242.783 17.8133C242.783 16.6042 241.816 15.7175 240.687 15.7175Z" fill="#D6DDE8"/>
<path d="M83.1848 71.9008C80.686 71.9008 78.6709 69.8857 78.6709 67.3869C78.6709 64.8882 80.686 62.873 83.1848 62.873C85.6836 62.873 87.6987 64.8882 87.6987 67.3869C87.6987 69.8857 85.603 71.9008 83.1848 71.9008ZM83.1848 65.3718C82.0563 65.3718 81.0891 66.2585 81.0891 67.4675C81.0891 68.6766 81.9757 69.5633 83.1848 69.5633C84.3939 69.5633 85.2805 68.6766 85.2805 67.4675C85.2805 66.2585 84.3133 65.3718 83.1848 65.3718Z" fill="#D6DDE8"/>
<path d="M277.524 36.2717C275.751 36.2717 274.219 34.8209 274.219 32.9669C274.219 31.113 275.67 29.6621 277.524 29.6621C279.297 29.6621 280.829 31.113 280.829 32.9669C280.829 34.8209 279.297 36.2717 277.524 36.2717ZM277.524 31.4354C276.718 31.4354 275.993 32.0803 275.993 32.9669C275.993 33.8536 276.637 34.4984 277.524 34.4984C278.33 34.4984 279.056 33.8536 279.056 32.9669C279.056 32.0803 278.33 31.4354 277.524 31.4354Z" fill="#D6DDE8"/>
<path d="M301.706 298.321C299.932 298.321 298.401 296.87 298.401 295.016C298.401 293.242 299.852 291.711 301.706 291.711C303.479 291.711 305.01 293.162 305.01 295.016C304.93 296.87 303.479 298.321 301.706 298.321ZM301.706 293.565C300.9 293.565 300.174 294.21 300.174 295.096C300.174 295.902 300.819 296.628 301.706 296.628C302.512 296.628 303.237 295.983 303.237 295.096C303.237 294.21 302.512 293.565 301.706 293.565Z" fill="#D6DDE8"/>
<path d="M172.979 294.128H147.104C146.54 294.128 146.137 293.725 146.137 293.161C146.137 292.596 146.54 292.193 147.104 292.193H172.979C173.543 292.193 173.946 292.596 173.946 293.161C173.946 293.725 173.462 294.128 172.979 294.128Z" fill="#AAB2C5" stroke="#AAB2C5" stroke-width="2" stroke-miterlimit="10" stroke-linecap="round" stroke-linejoin="round"/>
<path d="M171.689 287.923C172.414 288.406 172.898 289.212 172.898 290.018V292.114H147.427V289.938C147.427 289.132 147.83 288.326 148.475 287.842L151.779 285.585H151.86V276.477H168.062V285.746L171.689 287.923Z" fill="#D6DCE8" stroke="#AAB2C5" stroke-width="2" stroke-miterlimit="10" stroke-linecap="round" stroke-linejoin="round"/>
<path opacity="0.3" d="M172.818 290.099V292.195H165.321V290.099C165.321 289.212 165.16 288.406 164.838 288.003L163.387 285.746V276.477H168.062V285.746L171.689 288.003C172.415 288.406 172.818 289.212 172.818 290.099Z" fill="#AAB2C5"/>
<path d="M161.694 71.1748C160.727 70.2881 159.195 70.2881 158.228 71.1748C153.472 75.205 146.057 89.4722 146.057 104.626V282.683C146.057 284.376 147.427 285.665 149.039 285.665H159.921H170.883C172.576 285.665 173.865 284.295 173.865 282.683V104.626C173.946 89.4722 166.45 75.2856 161.694 71.1748Z" fill="#F1F3FA" stroke="#AAB2C5" stroke-width="2" stroke-miterlimit="10"/>
<path opacity="0.3" d="M173.946 104.625V282.682C173.946 284.375 172.576 285.745 170.883 285.745H163.145C163.629 285.745 164.032 284.375 164.032 282.682V104.625C164.032 89.4715 161.855 75.285 160.485 71.1741C160.324 70.7711 160.163 70.5293 160.001 70.5293C160.646 70.5293 161.211 70.7711 161.694 71.1741C166.45 75.285 173.946 89.4715 173.946 104.625Z" fill="#AAB2C5"/>
<path d="M160.002 70.5293C159.84 70.5293 159.76 70.7711 159.679 71.1741C158.712 75.285 157.18 89.4715 157.18 104.625V282.682C157.18 284.375 157.422 285.745 157.825 285.745H152.586C151.457 285.745 150.571 284.375 150.571 282.682V104.625C150.571 89.4715 155.649 75.285 158.873 71.1741C159.115 70.7711 159.599 70.5293 160.002 70.5293Z" fill="white"/>
<path d="M210.702 25.2292C208.365 24.1007 204.899 24.1007 202.561 25.2292C191.518 30.7909 173.866 56.8264 173.866 77.542C173.866 100.998 173.866 274.864 173.866 274.864H206.591H239.317C239.317 274.864 239.317 100.998 239.317 77.542C239.317 56.9071 221.745 30.8715 210.702 25.2292Z" fill="#D6DCE8" stroke="#AAB2C5" stroke-width="2" stroke-miterlimit="10" stroke-linecap="round" stroke-linejoin="round"/>
<path opacity="0.5" d="M239.317 77.6233C239.317 101.079 239.317 274.945 239.317 274.945H220.214C220.214 274.945 220.214 101.079 220.214 77.6233C220.214 56.9078 212.879 30.8723 208.284 25.3105C207.8 24.7462 207.156 24.4238 206.591 24.4238C208.042 24.4238 209.493 24.7462 210.622 25.3105C221.745 30.8723 239.317 56.9078 239.317 77.6233Z" fill="#AAB2C5"/>
<path d="M206.591 24.4238C206.108 24.4238 205.624 24.7462 205.302 25.3105C201.674 30.8723 196.032 56.9078 196.032 77.6233C196.032 101.079 196.032 274.945 196.032 274.945H182.49C182.49 274.945 182.49 101.079 182.49 77.6233C182.49 56.9078 195.468 30.8723 203.689 25.3105C204.495 24.6656 205.543 24.4238 206.591 24.4238Z" fill="white"/>
<path d="M210.702 25.2292C208.365 24.1007 204.899 24.1007 202.561 25.2292C191.518 30.7909 173.866 56.8264 173.866 77.542C173.866 100.998 173.866 274.864 173.866 274.864H206.591H239.317C239.317 274.864 239.317 100.998 239.317 77.542C239.317 56.907 221.745 30.8715 210.702 25.2292Z" stroke="#AAB2C5" stroke-width="2" stroke-miterlimit="10" stroke-linecap="round" stroke-linejoin="round"/>
<path d="M191.76 92.6152H239.317" stroke="#AAB2C5" stroke-width="2" stroke-miterlimit="10" stroke-linecap="round" stroke-linejoin="round"/>
<path d="M186.843 92.6152H187.085" stroke="#AAB2C5" stroke-width="2" stroke-miterlimit="10" stroke-linecap="round" stroke-linejoin="round"/>
<path d="M173.866 92.6152H182.087" stroke="#AAB2C5" stroke-width="2" stroke-miterlimit="10" stroke-linecap="round" stroke-linejoin="round"/>
<path d="M189.422 127.598H239.317" stroke="#AAB2C5" stroke-width="2" stroke-miterlimit="10" stroke-linecap="round" stroke-linejoin="round"/>
<path d="M173.866 127.598H182.41" stroke="#AAB2C5" stroke-width="2" stroke-miterlimit="10" stroke-linecap="round" stroke-linejoin="round"/>
<path d="M160.727 107.043H173.946" stroke="#AAB2C5" stroke-width="2" stroke-miterlimit="10" stroke-linecap="round" stroke-linejoin="round"/>
<path d="M155.246 107.043H156.132" stroke="#AAB2C5" stroke-width="2" stroke-miterlimit="10" stroke-linecap="round" stroke-linejoin="round"/>
<path d="M146.057 107.043H151.78" stroke="#AAB2C5" stroke-width="2" stroke-miterlimit="10" stroke-linecap="round" stroke-linejoin="round"/>
<path d="M156.616 143.881H173.946" stroke="#AAB2C5" stroke-width="2" stroke-miterlimit="10" stroke-linecap="round" stroke-linejoin="round"/>
<path d="M151.296 143.881H152.021" stroke="#AAB2C5" stroke-width="2" stroke-miterlimit="10" stroke-linecap="round" stroke-linejoin="round"/>
<path d="M146.057 171.77H173.946" stroke="#AAB2C5" stroke-width="2" stroke-miterlimit="10" stroke-linecap="round" stroke-linejoin="round"/>
<path d="M161.694 71.1748C160.727 70.2881 159.195 70.2881 158.228 71.1748C153.472 75.205 146.057 89.4722 146.057 104.626V282.683C146.057 284.376 147.427 285.665 149.039 285.665H159.921H170.883C172.576 285.665 173.865 284.295 173.865 282.683V104.626C173.946 89.4722 166.45 75.2856 161.694 71.1748Z" stroke="#AAB2C5" stroke-width="2" stroke-miterlimit="10"/>
<path d="M266.239 294.128H240.365C239.8 294.128 239.397 293.725 239.397 293.161C239.397 292.596 239.8 292.193 240.365 292.193H266.239C266.803 292.193 267.206 292.596 267.206 293.161C267.206 293.725 266.723 294.128 266.239 294.128Z" fill="#AAB2C5" stroke="#AAB2C5" stroke-width="2" stroke-miterlimit="10" stroke-linecap="round" stroke-linejoin="round"/>
<path d="M264.95 287.923C265.675 288.406 266.159 289.212 266.159 290.018V292.114H240.688V289.938C240.688 289.132 241.091 288.326 241.735 287.842L245.04 285.585H245.121V276.477H261.322V285.746L264.95 287.923Z" fill="#D6DCE8" stroke="#AAB2C5" stroke-width="2" stroke-miterlimit="10" stroke-linecap="round" stroke-linejoin="round"/>
<path opacity="0.3" d="M266.078 290.099V292.195H259.388V290.099C259.388 289.212 259.146 288.406 258.824 288.003L257.131 285.746V276.477H261.322V285.746L264.95 288.003C265.675 288.406 266.078 289.212 266.078 290.099Z" fill="#AAB2C5"/>
<path d="M254.954 71.1748C253.987 70.2881 252.456 70.2881 251.488 71.1748C246.733 75.205 239.317 89.4722 239.317 104.626V282.683C239.317 284.376 240.687 285.665 242.299 285.665H253.181H264.063C265.755 285.665 267.045 284.295 267.045 282.683V104.626C267.206 89.4722 259.71 75.2856 254.954 71.1748Z" fill="#F1F3FA" stroke="#AAB2C5" stroke-width="2" stroke-miterlimit="10"/>
<path opacity="0.3" d="M267.206 104.625V282.682C267.206 284.375 265.836 285.745 264.143 285.745H256.405C256.889 285.745 257.292 284.375 257.292 282.682V104.625C257.292 89.4715 255.116 75.285 253.745 71.1741C253.584 70.7711 253.423 70.5293 253.262 70.5293C253.907 70.5293 254.471 70.7711 254.954 71.1741C259.71 75.285 267.206 89.4715 267.206 104.625Z" fill="#AAB2C5"/>
<path d="M253.262 70.5293C253.101 70.5293 253.02 70.7711 252.939 71.1741C251.972 75.285 250.441 89.4715 250.441 104.625V282.682C250.441 284.375 250.683 285.745 251.086 285.745H245.846C244.718 285.745 243.831 284.375 243.831 282.682V104.625C243.831 89.4715 248.909 75.285 252.133 71.1741C252.456 70.7711 252.859 70.5293 253.262 70.5293Z" fill="white"/>
<path d="M250.44 107.043H267.206" stroke="#AAB2C5" stroke-width="2" stroke-miterlimit="10" stroke-linecap="round" stroke-linejoin="round"/>
<path d="M239.317 107.043H245.04" stroke="#AAB2C5" stroke-width="2" stroke-miterlimit="10" stroke-linecap="round" stroke-linejoin="round"/>
<path d="M251.892 143.881H267.207" stroke="#AAB2C5" stroke-width="2" stroke-miterlimit="10" stroke-linecap="round" stroke-linejoin="round"/>
<path d="M239.317 143.881H245.282" stroke="#AAB2C5" stroke-width="2" stroke-miterlimit="10" stroke-linecap="round" stroke-linejoin="round"/>
<path d="M239.317 171.77H267.206" stroke="#AAB2C5" stroke-width="2" stroke-miterlimit="10" stroke-linecap="round" stroke-linejoin="round"/>
<path d="M254.954 71.1748C253.987 70.2881 252.456 70.2881 251.488 71.1748C246.733 75.205 239.317 89.4722 239.317 104.626V282.683C239.317 284.376 240.687 285.665 242.299 285.665H253.181H264.063C265.755 285.665 267.045 284.295 267.045 282.683V104.626C267.206 89.4722 259.71 75.2856 254.954 71.1748Z" stroke="#AAB2C5" stroke-width="2" stroke-miterlimit="10"/>
<path d="M187.812 130.824L189.182 125.665L192.567 124.859L198.21 123.569L198.855 123.408L199.338 130.824L207.721 253.183L189.585 277.929L182.492 276.719L133.161 268.256C130.098 267.772 127.922 265.112 127.922 262.049V238.754C127.922 236.014 129.05 233.273 130.985 231.339L164.194 197.646C169.595 192.165 173.464 185.394 175.398 177.978L182.492 151.217L187.812 130.824Z" fill="white" stroke="#AAB2C5" stroke-width="2" stroke-miterlimit="10" stroke-linecap="round" stroke-linejoin="round"/>
<path d="M192.485 124.859V158.633L188.858 162.663L188.536 160.487C188.374 159.439 187.488 158.633 186.44 158.633C185.473 158.633 184.667 159.278 184.344 160.165L174.672 195.873C174.027 198.291 172.737 200.467 171.044 202.24L134.772 238.593C134.046 239.319 133.643 240.286 133.643 241.253V249.153C133.643 251.249 135.336 252.941 137.432 252.941H183.78L184.828 260.438C184.828 260.921 137.916 260.518 127.84 260.438V238.593C127.84 235.853 128.888 233.112 130.903 231.178L164.112 197.485C169.513 192.004 173.382 185.233 175.316 177.817L189.1 125.585L192.485 124.859Z" fill="#AAB2C5"/>
<path opacity="0.2" d="M207.72 253.183L189.584 277.848L182.41 276.639V151.137L187.81 130.824H199.337L207.72 253.183Z" fill="#99A8CC"/>
<path d="M160.243 232.791C160.324 232.71 160.324 232.629 160.404 232.549L160.243 232.791Z" fill="white"/>
<path d="M160.243 232.791C160.324 232.71 160.324 232.629 160.404 232.549" stroke="#AAB2C5" stroke-width="2" stroke-miterlimit="10" stroke-linecap="round" stroke-linejoin="round"/>
<path d="M171.367 243.108C170.077 244.236 168.384 244.881 166.531 244.881C162.339 244.881 158.873 241.495 158.873 237.223C158.873 237.062 158.873 236.901 158.873 236.82" fill="white"/>
<path d="M171.367 243.108C170.077 244.236 168.384 244.881 166.531 244.881C162.339 244.881 158.873 241.495 158.873 237.223C158.873 237.062 158.873 236.901 158.873 236.82" stroke="#AAB2C5" stroke-width="2" stroke-miterlimit="10" stroke-linecap="round" stroke-linejoin="round"/>
<path d="M165.402 229.647C165.724 229.566 166.127 229.566 166.45 229.566C170.641 229.566 174.107 232.952 174.107 237.224C174.107 238.03 174.027 238.755 173.785 239.481" fill="white"/>
<path d="M165.402 229.647C165.724 229.566 166.127 229.566 166.45 229.566C170.641 229.566 174.107 232.952 174.107 237.224C174.107 238.03 174.027 238.755 173.785 239.481" stroke="#AAB2C5" stroke-width="2" stroke-miterlimit="10" stroke-linecap="round" stroke-linejoin="round"/>
<path d="M287.761 238.674V261.969C287.761 265.032 285.584 267.692 282.521 268.175L245.523 274.543L226.098 277.848L207.961 253.183L216.828 123.408L217.473 123.569L223.115 124.94L226.501 125.746L238.833 172.255L240.365 177.978C242.299 185.394 246.168 192.165 251.569 197.646L284.778 231.339C286.713 233.273 287.761 235.933 287.761 238.674Z" fill="white" stroke="#AAB2C5" stroke-width="2" stroke-miterlimit="10" stroke-linecap="round" stroke-linejoin="round"/>
<path d="M257.05 227.953H241.735V238.835H257.05V227.953Z" stroke="#AAB2C5" stroke-width="2" stroke-miterlimit="10" stroke-linecap="round" stroke-linejoin="round"/>
<path d="M249.715 227.953H241.735V233.918H249.715V227.953Z" fill="#AAB2C5"/>
<path d="M223.115 124.859V158.633L226.742 162.663L227.065 160.487C227.226 159.439 228.113 158.633 229.161 158.633C230.128 158.633 230.934 159.278 231.256 160.165L241.01 195.873C241.654 198.291 242.944 200.467 244.637 202.24L280.909 238.593C281.635 239.319 282.038 240.286 282.038 241.253V249.153C282.038 251.249 280.345 252.941 278.249 252.941H231.982L230.934 260.438C230.934 260.921 277.846 260.518 287.922 260.438V238.593C287.922 235.853 286.874 233.112 284.859 231.178L251.488 197.565C246.088 192.084 242.219 185.313 240.284 177.898L226.501 125.665L223.115 124.859Z" fill="#AAB2C5"/>
<path opacity="0.3" d="M245.524 252.054V274.543L226.098 277.848L207.961 253.183L216.828 123.408L217.473 123.569L223.115 124.94L226.501 125.746L238.833 172.255V242.462C242.702 243.833 245.524 247.621 245.524 252.054Z" fill="#99A8CC"/>
<path d="M226.743 119.055V274.945H188.294V119.055C188.294 112.284 189.745 105.594 192.647 99.4677C193.211 98.3392 193.775 97.1301 194.42 96.0016V95.921L202.48 82.5406C204.737 78.7521 210.219 78.7521 212.556 82.5406L220.617 95.921V96.0016C221.262 97.1301 221.826 98.2586 222.39 99.3871C225.292 105.594 226.743 112.284 226.743 119.055Z" fill="white" stroke="#AAB2C5" stroke-width="2" stroke-miterlimit="10" stroke-linecap="round" stroke-linejoin="round"/>
<path opacity="0.3" d="M226.743 119.056V274.946H215.216V119.056C215.216 112.285 214.652 105.594 213.443 99.4685C213.201 98.34 213.04 97.2115 212.717 96.083V96.0024L209.493 82.622C209.01 80.6874 208.284 79.8008 207.478 79.8008C209.413 79.8008 211.347 80.768 212.476 82.622L220.536 96.0024V96.083C221.181 97.2115 221.745 98.34 222.309 99.4685C225.292 105.594 226.743 112.285 226.743 119.056Z" fill="#99A8CC"/>
<path d="M222.39 99.4677C221.02 97.3719 218.682 96.0016 216.103 96.0016H199.095C196.515 96.0016 194.097 97.3719 192.727 99.4677C193.291 98.3392 193.856 97.1301 194.5 96.0016V95.921L202.561 82.5406C204.818 78.7521 210.299 78.7521 212.637 82.5406L220.697 95.921V96.0016C221.261 97.1301 221.906 98.2586 222.39 99.4677Z" fill="#AAB2C5"/>
<path d="M216.183 116.556C216.183 117.201 215.458 117.443 215.055 116.959C214.168 115.831 212.798 115.186 211.186 115.186H203.77C202.319 115.186 200.949 115.831 200.062 116.878C199.982 116.959 199.982 116.959 199.901 117.04C199.498 117.523 198.772 117.201 198.772 116.637C198.772 116.153 198.772 115.508 198.772 114.702C198.772 111.962 201.029 109.785 203.77 109.785H211.186C211.347 109.785 211.508 109.785 211.669 109.785C212.395 109.866 213.04 110.108 213.684 110.43C215.135 111.317 216.183 112.929 216.183 114.702C216.183 115.508 216.183 116.072 216.183 116.556Z" fill="#AAB2C5"/>
<path d="M207.559 162.984H226.743" stroke="#AAB2C5" stroke-width="2" stroke-miterlimit="10" stroke-linecap="round" stroke-linejoin="round"/>
<path d="M203.367 162.984H204.173" stroke="#AAB2C5" stroke-width="2" stroke-miterlimit="10" stroke-linecap="round" stroke-linejoin="round"/>
<path d="M188.375 162.984H197.322" stroke="#AAB2C5" stroke-width="2" stroke-miterlimit="10" stroke-linecap="round" stroke-linejoin="round"/>
<path d="M201.674 205.867H226.743" stroke="#AAB2C5" stroke-width="2" stroke-miterlimit="10" stroke-linecap="round" stroke-linejoin="round"/>
<path d="M195.064 205.867H197.321" stroke="#AAB2C5" stroke-width="2" stroke-miterlimit="10" stroke-linecap="round" stroke-linejoin="round"/>
<path d="M197.483 241.736H192.808C187.085 241.736 182.49 246.331 182.49 252.054V278.009H207.8V252.054C207.72 246.331 203.125 241.736 197.483 241.736Z" fill="white" stroke="#AAB2C5" stroke-width="2" stroke-miterlimit="10" stroke-linecap="round" stroke-linejoin="round"/>
<path opacity="0.3" d="M207.719 252.054V278.009H197.644V244.316C197.644 242.865 196.515 241.736 195.064 241.736H197.402C203.125 241.736 207.719 246.331 207.719 252.054Z" fill="#99A8CC"/>
<path d="M222.551 241.736H217.876C212.153 241.736 207.559 246.331 207.559 252.054V278.009H232.869V252.054C232.869 246.331 228.274 241.736 222.551 241.736Z" fill="#F1F3FA" stroke="#AAB2C5" stroke-width="2" stroke-miterlimit="10"/>
<path d="M219.891 241.816C219.165 241.978 218.682 242.622 218.682 243.348V278.089H216.344V245.685C216.344 243.59 217.876 241.978 219.891 241.816Z" fill="white"/>
<path opacity="0.3" d="M232.869 252.054V278.009H224.083V245.122C224.083 243.268 222.551 241.736 220.697 241.736H222.551C228.274 241.736 232.869 246.331 232.869 252.054Z" fill="#AAB2C5"/>
<path opacity="0.1" d="M207.478 252.054V278.009H216.264V245.122C216.264 243.268 217.796 241.736 219.649 241.736H217.796C212.153 241.736 207.478 246.331 207.478 252.054Z" fill="#AAB2C5"/>
<path d="M222.551 241.736H217.876C212.153 241.736 207.559 246.331 207.559 252.054V278.009H232.869V252.054C232.869 246.331 228.274 241.736 222.551 241.736Z" stroke="#AAB2C5" stroke-width="2" stroke-miterlimit="10"/>
<path d="M220.858 277.848H194.258L188.777 281.555C187.649 282.362 187.004 283.571 187.004 284.941V288.568H228.919V285.102C228.919 283.651 228.193 282.362 226.984 281.636L220.858 277.848Z" fill="#D6DCE8" stroke="#AAB2C5" stroke-width="2" stroke-miterlimit="10" stroke-linecap="round" stroke-linejoin="round"/>
<path opacity="0.3" d="M228.919 285.183V288.649H216.344V285.183C216.344 283.732 216.022 282.442 215.538 281.636L213.12 277.848H220.858L226.984 281.636C228.193 282.362 228.919 283.732 228.919 285.183Z" fill="#AAB2C5"/>
<path d="M230.692 290.261C230.692 291.147 229.967 291.873 229.08 291.873H186.52C185.634 291.873 184.908 291.147 184.908 290.261C184.908 289.374 185.634 288.648 186.52 288.648H229.08C229.967 288.648 230.692 289.374 230.692 290.261Z" fill="#AAB2C5" stroke="#AAB2C5" stroke-width="2" stroke-miterlimit="10" stroke-linecap="round" stroke-linejoin="round"/>
<path d="M204.979 138.4H203.206C202.319 138.4 201.594 137.674 201.594 136.788V135.014C201.594 134.128 202.319 133.402 203.206 133.402H204.979C205.866 133.402 206.591 134.128 206.591 135.014V136.788C206.591 137.674 205.866 138.4 204.979 138.4Z" fill="#AAB2C5"/>
<path d="M212.475 138.4H210.702C209.815 138.4 209.09 137.674 209.09 136.788V135.014C209.09 134.128 209.815 133.402 210.702 133.402H212.475C213.362 133.402 214.087 134.128 214.087 135.014V136.788C214.087 137.674 213.362 138.4 212.475 138.4Z" fill="#AAB2C5"/>
<path d="M210.138 295.096H204.898V235.449C204.898 233.998 206.108 232.869 207.478 232.869C208.929 232.869 210.057 234.078 210.057 235.449V295.096H210.138Z" fill="white" stroke="#AAB2C5" stroke-width="2" stroke-miterlimit="10" stroke-linecap="round" stroke-linejoin="round"/>
<path d="M168.949 333.868C172.173 331.208 176.364 329.596 180.959 329.596C188.375 329.596 194.742 333.868 197.805 340.074" stroke="#AAB2C5" stroke-width="2" stroke-miterlimit="10" stroke-linecap="round" stroke-linejoin="round"/>
<path opacity="0.3" d="M208.526 109.703L205.624 115.184H203.77C202.319 115.184 200.949 115.829 200.062 116.877L203.851 109.703H208.526Z" fill="white"/>
<path opacity="0.3" d="M213.685 110.348L211.186 115.184H208.768L211.669 109.703C212.395 109.784 213.04 110.026 213.685 110.348Z" fill="white"/>
<path d="M59.5671 382.231C59.3253 379.974 59.1641 377.717 59.1641 375.46C59.1641 342.493 85.8444 315.812 118.812 315.812C146.298 315.812 169.432 334.352 176.364 359.662" stroke="#AAB2C5" stroke-width="2" stroke-miterlimit="10" stroke-linecap="round" stroke-linejoin="round"/>
<path d="M66.1771 403.51C63.5977 398.674 61.6632 393.354 60.4541 387.873" stroke="#AAB2C5" stroke-width="2" stroke-miterlimit="10" stroke-linecap="round" stroke-linejoin="round"/>
<path d="M176.848 359.418C177.493 348.617 186.521 339.992 197.483 339.992C201.594 339.992 205.382 341.201 208.607 343.216" stroke="#AAB2C5" stroke-width="2" stroke-miterlimit="10" stroke-linecap="round" stroke-linejoin="round"/>
<path d="M217.473 328.629C220.778 326.372 224.808 325.082 229.08 325.082C235.932 325.082 241.897 328.387 245.685 333.465" stroke="#AAB2C5" stroke-width="2" stroke-miterlimit="10" stroke-linecap="round" stroke-linejoin="round"/>
<path d="M339.026 362.24C341.847 368.044 343.379 374.492 343.379 381.344C343.379 384.89 342.976 388.356 342.169 391.661" stroke="#AAB2C5" stroke-width="2" stroke-miterlimit="10" stroke-linecap="round" stroke-linejoin="round"/>
<path d="M263.015 356.194C270.995 344.748 284.214 337.252 299.207 337.252C313.474 337.252 326.21 344.023 334.27 354.582" stroke="#AAB2C5" stroke-width="2" stroke-miterlimit="10" stroke-linecap="round" stroke-linejoin="round"/>
<path d="M343.378 378.281C343.781 378.281 344.184 378.281 344.587 378.281C355.308 378.281 364.013 386.987 364.013 397.707C364.013 401.576 362.885 405.123 360.95 408.105" stroke="#AAB2C5" stroke-width="2" stroke-miterlimit="10" stroke-linecap="round" stroke-linejoin="round"/>
<path opacity="0.3" d="M343.379 381.425C343.379 412.216 312.588 433.496 283.812 422.775C311.379 428.821 337.495 407.863 337.495 379.651C337.495 360.709 325.565 344.507 308.719 338.301C328.547 342.653 343.379 360.306 343.379 381.425Z" fill="#99A8CC"/>
<path d="M319.036 420.84C318.31 421.243 317.585 421.565 316.859 421.888" stroke="#AAB2C5" stroke-width="2" stroke-miterlimit="10" stroke-linecap="round" stroke-linejoin="round"/>
<path d="M342.25 391.178C339.832 401.737 333.706 410.845 325.242 417.052" stroke="#AAB2C5" stroke-width="2" stroke-miterlimit="10" stroke-linecap="round" stroke-linejoin="round"/>
<path d="M128.807 389.969C133.966 390.775 138.077 394.644 139.286 399.641" stroke="#AAB2C5" stroke-width="2" stroke-miterlimit="10" stroke-linecap="round" stroke-linejoin="round"/>
<path d="M134.047 391.743C138.158 385.294 145.412 380.941 153.634 380.941C158.309 380.941 162.662 382.312 166.289 384.73" stroke="#AAB2C5" stroke-width="2" stroke-miterlimit="10" stroke-linecap="round" stroke-linejoin="round"/>
<path d="M162.339 382.633C162.258 382.069 162.258 381.505 162.258 380.94C162.258 368.124 172.656 357.807 185.392 357.807C198.128 357.807 208.526 368.205 208.526 380.94C208.526 382.633 208.365 384.245 208.042 385.857" stroke="#AAB2C5" stroke-width="2" stroke-miterlimit="10" stroke-linecap="round" stroke-linejoin="round"/>
<path d="M208.042 385.857C209.816 387.55 211.347 389.565 212.395 391.822" stroke="#AAB2C5" stroke-width="2" stroke-miterlimit="10" stroke-linecap="round" stroke-linejoin="round"/>
<path d="M209.815 398.189C213.684 384.728 226.017 374.895 240.768 374.895C256.083 374.895 268.899 385.615 272.123 399.882" stroke="#AAB2C5" stroke-width="2" stroke-miterlimit="10" stroke-linecap="round" stroke-linejoin="round"/>
<path opacity="0.3" d="M230.612 437.526C217.795 433.254 208.526 421.244 208.526 406.977C208.526 392.065 218.682 379.571 232.385 375.863C206.027 387.39 204.979 424.549 230.612 437.526Z" fill="#99A8CC"/>
<path d="M208.606 405.446C208.606 404.881 208.687 404.398 208.687 403.914" stroke="#AAB2C5" stroke-width="2" stroke-miterlimit="10" stroke-linecap="round" stroke-linejoin="round"/>
<path d="M261.564 425.515C261.483 424.709 261.403 423.984 261.403 423.178C261.403 414.311 268.577 407.057 277.524 407.057C286.39 407.057 293.645 414.231 293.645 423.178" stroke="#AAB2C5" stroke-width="2" stroke-miterlimit="10" stroke-linecap="round" stroke-linejoin="round"/>
<path d="M385.455 381.506C386.583 379.733 388.598 378.523 390.855 378.523C394.321 378.523 397.142 381.345 397.142 384.811" stroke="#AAB2C5" stroke-width="2" stroke-miterlimit="10" stroke-linecap="round" stroke-linejoin="round"/>
<path d="M384.648 386.019C384.648 385.939 384.648 385.858 384.568 385.777" stroke="#AAB2C5" stroke-width="2" stroke-miterlimit="10" stroke-linecap="round" stroke-linejoin="round"/>
<path d="M395.53 389.002C394.402 390.291 392.709 391.097 390.774 391.097C388.598 391.097 386.744 390.05 385.616 388.438" stroke="#AAB2C5" stroke-width="2" stroke-miterlimit="10" stroke-linecap="round" stroke-linejoin="round"/>
<path d="M151.055 403.027C152.183 401.254 154.198 400.045 156.455 400.045C159.921 400.045 162.742 402.866 162.742 406.332" stroke="#AAB2C5" stroke-width="2" stroke-miterlimit="10" stroke-linecap="round" stroke-linejoin="round"/>
<path d="M150.249 407.623C150.249 407.542 150.249 407.461 150.168 407.381" stroke="#AAB2C5" stroke-width="2" stroke-miterlimit="10" stroke-linecap="round" stroke-linejoin="round"/>
<path d="M161.13 410.523C160.002 411.813 158.309 412.619 156.375 412.619C154.198 412.619 152.344 411.571 151.216 409.959" stroke="#AAB2C5" stroke-width="2" stroke-miterlimit="10" stroke-linecap="round" stroke-linejoin="round"/>
<path d="M43.688 409.233C51.5067 405.606 60.2121 403.51 69.3205 403.51C71.0132 403.51 72.7059 403.59 74.318 403.752" stroke="#AAB2C5" stroke-width="2" stroke-miterlimit="10" stroke-linecap="round" stroke-linejoin="round"/>
<path d="M33.9351 414.956C35.386 413.909 36.8368 412.941 38.3684 412.055" stroke="#AAB2C5" stroke-width="2" stroke-miterlimit="10" stroke-linecap="round" stroke-linejoin="round"/>
<path d="M388.114 413.746C380.296 410.119 371.59 408.023 362.482 408.023C360.789 408.023 359.096 408.104 357.484 408.265" stroke="#AAB2C5" stroke-width="2" stroke-miterlimit="10" stroke-linecap="round" stroke-linejoin="round"/>
<path d="M294.048 205.785C294.048 199.337 299.288 194.098 305.736 194.098C307.026 194.098 308.235 194.339 309.444 194.662" stroke="#AAB2C5" stroke-width="2" stroke-miterlimit="10" stroke-linecap="round" stroke-linejoin="round"/>
<path d="M371.994 206.994H392.629" stroke="#AAB2C5" stroke-width="2" stroke-miterlimit="10" stroke-linecap="round" stroke-linejoin="round"/>
<path d="M337.092 198.934C341.525 198.934 345.072 202.48 345.072 206.914H362.482" stroke="#AAB2C5" stroke-width="2" stroke-miterlimit="10" stroke-linecap="round" stroke-linejoin="round"/>
<path d="M309.524 194.662C311.298 189.101 316.537 185.07 322.744 185.07C330.401 185.07 336.608 191.277 336.608 198.934" stroke="#AAB2C5" stroke-width="2" stroke-miterlimit="10" stroke-linecap="round" stroke-linejoin="round"/>
<path d="M121.15 222.551C121.15 219.569 118.732 217.07 115.669 217.07C115.105 217.07 114.46 217.151 113.976 217.312" stroke="#AAB2C5" stroke-width="2" stroke-miterlimit="10" stroke-linecap="round" stroke-linejoin="round"/>
<path d="M84.7967 223.035H75.124" stroke="#AAB2C5" stroke-width="2" stroke-miterlimit="10" stroke-linecap="round" stroke-linejoin="round"/>
<path d="M101.079 219.328C98.9832 219.328 97.3711 221.021 97.3711 223.036H89.23" stroke="#AAB2C5" stroke-width="2" stroke-miterlimit="10" stroke-linecap="round" stroke-linejoin="round"/>
<path d="M113.895 217.313C113.089 214.733 110.59 212.799 107.769 212.799C104.223 212.799 101.321 215.701 101.321 219.247" stroke="#AAB2C5" stroke-width="2" stroke-miterlimit="10" stroke-linecap="round" stroke-linejoin="round"/>
<path d="M15.396 266.077C15.396 262.611 18.2172 259.709 21.7638 259.709C22.4893 259.709 23.1341 259.79 23.7789 260.031" stroke="#AAB2C5" stroke-width="2" stroke-miterlimit="10" stroke-linecap="round" stroke-linejoin="round"/>
<path d="M38.6909 262.369C41.1091 262.369 43.0436 264.304 43.0436 266.722H52.4744" stroke="#AAB2C5" stroke-width="2" stroke-miterlimit="10" stroke-linecap="round" stroke-linejoin="round"/>
<path d="M23.7788 260.112C24.7461 257.13 27.5673 254.873 30.9527 254.873C35.0636 254.873 38.449 258.258 38.449 262.369" stroke="#AAB2C5" stroke-width="2" stroke-miterlimit="10" stroke-linecap="round" stroke-linejoin="round"/>
<path opacity="0.3" d="M296.547 337.333C305.413 318.068 324.92 304.688 347.57 304.688C378.603 304.688 403.752 329.836 403.752 360.869C403.752 376.023 397.787 389.807 388.034 399.882" stroke="#AAB2C5" stroke-width="2" stroke-miterlimit="10" stroke-linecap="round" stroke-linejoin="round"/>
<path opacity="0.3" d="M4.91722 393.434C-0.805759 372.96 5.40085 350.149 22.6504 335.559C40.0611 320.808 63.8397 318.471 83.185 327.66" stroke="#AAB2C5" stroke-width="2" stroke-miterlimit="10" stroke-linecap="round" stroke-linejoin="round"/>
<path d="M70.0459 291.469H76.7361V291.066C76.7361 287.6 79.5573 284.779 83.0234 284.779C84.6355 284.779 86.0864 285.424 87.2148 286.391V286.31C88.9075 281.152 93.7439 277.363 99.4668 277.363C106.56 277.363 112.364 283.167 112.364 290.26C112.364 290.905 112.283 291.63 112.202 292.275L112.364 292.436H115.83" stroke="#AAB2C5" stroke-width="2" stroke-miterlimit="10" stroke-linecap="round" stroke-linejoin="round"/>
<path d="M373.525 247.377H367.157V246.974C367.157 243.669 364.497 241.009 361.192 241.009C359.661 241.009 358.291 241.574 357.162 242.541V242.46C355.55 237.543 350.956 233.916 345.394 233.916C338.623 233.916 333.061 239.397 333.061 246.249C333.061 246.893 333.142 247.538 333.222 248.183L333.061 248.344H329.756" stroke="#AAB2C5" stroke-width="2" stroke-miterlimit="10" stroke-linecap="round" stroke-linejoin="round"/>
<path d="M50.3784 66.4193C50.3784 66.5001 50.3784 66.5809 50.3784 66.6616V66.2578C50.3784 66.2578 50.3784 66.3386 50.3784 66.4193Z" fill="#F1F3FA" stroke="#AAB2C5" stroke-width="2" stroke-miterlimit="10"/>
<path d="M345.456 106.79C354.742 97.5044 354.742 82.4488 345.456 73.1627C336.17 63.8767 321.114 63.8767 311.828 73.1627C302.542 82.4488 302.542 97.5044 311.828 106.79C321.114 116.076 336.17 116.076 345.456 106.79Z" fill="#F1F3FA" stroke="#AAB2C5" stroke-width="2" stroke-miterlimit="10"/>
<path d="M333.625 113.251C324.114 104.626 314.119 94.6314 305.414 85.0394C309.283 66.742 332.094 59.7293 345.555 73.1098C358.855 86.4903 351.923 109.382 333.625 113.251Z" fill="#F1F3FA" stroke="#AAB2C5" stroke-width="2" stroke-miterlimit="10"/>
<path d="M314.28 71.0138C297.836 56.4242 284.778 47.7189 282.199 50.2982C279.539 52.9582 289.292 67.3866 305.333 85.0391C331.771 114.299 364.094 140.657 368.366 136.385C372.799 131.951 344.104 97.3717 314.28 71.0138ZM339.912 110.913C311.136 89.0694 286.794 52.6358 312.91 72.0617C331.288 85.684 354.986 113.17 351.6 116.556C350.391 117.765 345.958 115.508 339.912 110.913Z" fill="#F1F3FA" stroke="#AAB2C5" stroke-width="2" stroke-miterlimit="10"/>
<path opacity="0.3" d="M293.242 59.7281C290.26 62.7105 302.512 79.7988 320.648 97.935C338.784 116.071 355.872 128.323 358.855 125.341C365.867 118.328 300.335 52.6348 293.242 59.7281ZM302.028 66.9826C304.204 64.8063 317.101 74.0759 330.804 87.7788C344.507 101.482 353.777 114.298 351.6 116.555C346.361 121.794 296.789 72.2219 302.028 66.9826Z" fill="#AAB2C5"/>
<path d="M339.913 110.913C329.353 102.933 315.65 89.2303 307.67 78.671C315.005 64.9681 333.948 61.5827 345.474 73.1093C356.92 84.5552 353.696 103.497 339.913 110.913Z" fill="#F1F3FA" stroke="#AAB2C5" stroke-width="2" stroke-miterlimit="10"/>
<path opacity="0.3" d="M345.394 106.884C343.701 108.496 341.847 109.866 339.913 110.914C329.353 102.934 315.65 89.2312 307.67 78.6719C308.638 76.818 310.008 75.2059 311.539 73.5938C309.847 80.2034 340.719 110.43 345.394 106.884Z" fill="#AAB2C5"/>
<path opacity="0.3" d="M344.91 97.2113C346.735 97.2113 348.215 94.7934 348.215 91.8107C348.215 88.8281 346.735 86.4102 344.91 86.4102C343.085 86.4102 341.605 88.8281 341.605 91.8107C341.605 94.7934 343.085 97.2113 344.91 97.2113Z" fill="#AAB2C5"/>
<path opacity="0.3" d="M336.688 80.8469C338.157 80.8469 339.348 79.4033 339.348 77.6226C339.348 75.842 338.157 74.3984 336.688 74.3984C335.219 74.3984 334.028 75.842 334.028 77.6226C334.028 79.4033 335.219 80.8469 336.688 80.8469Z" fill="#AAB2C5"/>
<path opacity="0.3" d="M320.302 78.327C321.665 78.1065 322.625 77.0371 322.447 75.9386C322.269 74.84 321.021 74.1282 319.658 74.3487C318.296 74.5693 317.336 75.6386 317.514 76.7372C317.692 77.8358 318.94 78.5475 320.302 78.327Z" fill="#AAB2C5"/>
<path opacity="0.3" d="M329.149 87.2602C331.346 86.9045 332.885 85.12 332.586 83.2744C332.287 81.4288 330.264 80.221 328.067 80.5767C325.87 80.9324 324.331 82.7169 324.629 84.5625C324.928 86.408 326.951 87.6159 329.149 87.2602Z" fill="#AAB2C5"/>
<path d="M114.138 130.741C114.138 156.454 88.1827 174.188 64.2429 164.757C57.9557 162.258 52.5551 158.147 48.5249 152.827C30.3887 128.968 47.2352 94.1465 77.6234 94.1465C81.8149 94.1465 85.7645 94.8719 89.4724 96.081C103.901 101.159 114.138 114.862 114.138 130.741Z" fill="#F1F3FA" stroke="#AAB2C5" stroke-width="2" stroke-miterlimit="10"/>
<path opacity="0.5" d="M73.0286 134.208C73.0286 139.366 68.8371 143.558 63.6783 143.558C62.2274 143.558 60.8572 143.235 59.5675 142.591C56.4239 141.059 54.3281 137.915 54.3281 134.208C54.3281 129.049 58.5196 124.857 63.6783 124.857C66.3383 124.857 68.8371 125.986 70.5298 127.84C72.0613 129.452 73.0286 131.709 73.0286 134.208Z" fill="#AAB2C5"/>
<path d="M73.0282 134.208C73.0282 139.367 68.8367 143.558 63.678 143.558C62.2271 143.558 60.8568 143.236 59.5671 142.591C58.0356 140.898 57.0684 138.722 57.0684 136.223C57.0684 131.065 61.2598 126.873 66.4186 126.873C67.8695 126.873 69.2398 127.195 70.5294 127.84C72.0609 129.452 73.0282 131.709 73.0282 134.208Z" fill="#DCDFEA"/>
<path opacity="0.5" d="M87.1346 118.489C87.1346 122.036 84.3134 124.857 80.7667 124.857C80.1219 124.857 79.5577 124.776 78.9934 124.615C76.3335 123.889 74.3989 121.391 74.3989 118.489C74.3989 114.942 77.2201 112.121 80.7667 112.121C82.5401 112.121 84.0716 112.847 85.2 113.894C86.4091 115.103 87.1346 116.716 87.1346 118.489Z" fill="#AAB2C5"/>
<path d="M87.1343 118.49C87.1343 122.037 84.3131 124.858 80.7664 124.858C80.1216 124.858 79.5574 124.777 78.9931 124.616C77.784 123.488 77.0586 121.876 77.0586 120.102C77.0586 116.556 79.8798 113.734 83.4264 113.734C84.0713 113.734 84.6355 113.815 85.1997 113.976C86.4088 115.105 87.1343 116.717 87.1343 118.49Z" fill="#DCDFEA"/>
<path opacity="0.5" d="M92.3738 144.606C92.3738 148.153 89.5526 150.974 86.006 150.974C85.6836 150.974 85.2806 150.974 84.9581 150.893C81.8951 150.41 79.6382 147.75 79.6382 144.606C79.6382 141.059 82.4594 138.238 86.006 138.238C87.2957 138.238 88.5048 138.641 89.5526 139.286C91.2453 140.415 92.3738 142.349 92.3738 144.606Z" fill="#AAB2C5"/>
<path d="M92.3736 144.606C92.3736 148.152 89.5524 150.973 86.0058 150.973C85.6833 150.973 85.2803 150.973 84.9579 150.893C83.2652 149.764 82.1367 147.83 82.1367 145.573C82.1367 142.026 84.9579 139.205 88.5045 139.205C88.827 139.205 89.1494 139.205 89.5524 139.286C91.2451 140.414 92.3736 142.349 92.3736 144.606Z" fill="#DCDFEA"/>
<path opacity="0.5" d="M99.467 129.936C99.467 132.274 97.613 134.128 95.2755 134.128C95.0337 134.128 94.7919 134.128 94.5501 134.047C92.5349 133.725 91.0034 131.951 91.0034 129.856C91.0034 127.518 92.9379 125.664 95.1949 125.664C96.1622 125.664 97.0488 125.986 97.7743 126.551C98.8221 127.437 99.467 128.646 99.467 129.936Z" fill="#AAB2C5"/>
<path d="M99.467 129.936C99.467 132.274 97.6131 134.128 95.2755 134.128C95.0337 134.128 94.7919 134.128 94.5501 134.047C93.5828 133.241 92.938 132.032 92.938 130.742C92.938 128.405 94.7919 126.551 97.1295 126.551C97.3713 126.551 97.6131 126.551 97.8549 126.631C98.8222 127.437 99.467 128.647 99.467 129.936Z" fill="#DCDFEA"/>
<path opacity="0.3" d="M114.137 130.742C114.137 156.455 88.1825 174.188 64.2427 164.757C64.8069 164.274 65.5324 163.951 66.1772 163.629C78.671 157.503 90.1976 162.5 95.1145 153.795C97.3715 149.765 96.0818 144.525 98.1775 140.415C99.1448 138.399 100.837 136.787 101.805 134.853C105.271 127.759 98.1775 112.444 99.5478 108.172C100.112 106.48 101.805 105.432 103.578 105.109C110.107 111.719 114.137 120.747 114.137 130.742Z" fill="#AAB2C5"/>
<path d="M90.3586 101.723C88.3434 106.802 79.9605 105.27 76.2526 105.351C68.7563 105.431 67.7085 109.22 66.177 111.235C63.7588 114.378 59.3255 115.668 55.6177 114.378C58.8419 129.855 52.1517 128.484 50.9426 133.401C49.5723 139.205 59.8898 142.751 57.9552 148.474C56.8268 151.779 51.9904 152.585 48.4438 152.827C30.3076 128.968 47.1541 94.1465 77.5423 94.1465C81.7338 94.1465 85.6835 94.8719 89.3913 96.081C90.5198 97.8543 91.084 99.9501 90.3586 101.723Z" fill="white"/>
<path opacity="0.3" d="M61.1795 117.844C62.604 117.844 63.7588 116.689 63.7588 115.265C63.7588 113.84 62.604 112.686 61.1795 112.686C59.7549 112.686 58.6001 113.84 58.6001 115.265C58.6001 116.689 59.7549 117.844 61.1795 117.844Z" fill="#AAB2C5"/>
<path d="M114.138 130.741C114.138 156.454 88.1827 174.188 64.2429 164.757C57.9557 162.258 52.5551 158.147 48.5249 152.827C30.3887 128.968 47.2352 94.1465 77.6234 94.1465C81.8149 94.1465 85.7645 94.8719 89.4724 96.081C103.901 101.159 114.138 114.862 114.138 130.741Z" stroke="#AAB2C5" stroke-width="2" stroke-miterlimit="10"/>
</svg>
