<svg width="231" height="115" viewBox="0 0 231 115" fill="none" xmlns="http://www.w3.org/2000/svg">
<path fill-rule="evenodd" clip-rule="evenodd" d="M119.456 43.7813C119.071 43.7828 118.689 43.7063 118.334 43.5563C117.984 43.4018 117.667 43.1823 117.399 42.9096C117.264 42.7682 117.139 42.6179 117.025 42.4597C116.92 42.2993 116.829 42.1299 116.754 41.9536C116.681 41.7781 116.624 41.596 116.585 41.4099C116.548 41.2185 116.529 41.0239 116.529 40.8288C116.527 40.4456 116.604 40.066 116.754 39.7134C116.91 39.362 117.132 39.0439 117.408 38.7761C117.55 38.646 117.703 38.5299 117.866 38.4293C118.025 38.3235 118.194 38.2355 118.371 38.1669C118.544 38.0899 118.727 38.0363 118.914 38.0075C119.099 37.9703 119.286 37.9514 119.475 37.9513C119.857 37.9465 120.235 38.0199 120.588 38.1669C120.939 38.3135 121.257 38.5304 121.523 38.8042C121.659 38.9383 121.781 39.0859 121.888 39.2448C121.991 39.4031 122.081 39.5692 122.159 39.7415C122.227 39.9179 122.28 40.0998 122.318 40.2852C122.355 40.4703 122.374 40.6587 122.374 40.8476C122.375 41.2298 122.302 41.6086 122.159 41.9629C122.015 42.3146 121.802 42.6334 121.532 42.9002C121.401 43.0426 121.254 43.1685 121.093 43.2751C120.939 43.3912 120.773 43.4887 120.597 43.5657C120.422 43.6389 120.24 43.6954 120.055 43.7344C119.864 43.7712 119.669 43.7901 119.475 43.7907M112.471 43.7907C112.085 43.7922 111.704 43.7157 111.349 43.5657C110.999 43.4112 110.682 43.1917 110.414 42.919C110.274 42.7825 110.148 42.6317 110.039 42.4691C109.928 42.311 109.834 42.1413 109.759 41.9629C109.686 41.7874 109.63 41.6054 109.591 41.4193C109.553 41.2279 109.534 41.0333 109.535 40.8382C109.533 40.4549 109.609 40.0754 109.759 39.7228C109.919 39.3711 110.144 39.053 110.423 38.7855C110.561 38.6526 110.711 38.5334 110.872 38.4293C111.028 38.3255 111.194 38.2376 111.367 38.1669C111.54 38.0899 111.723 38.0363 111.91 38.0075C112.098 37.9698 112.289 37.951 112.48 37.9513C112.859 37.9457 113.235 38.0191 113.584 38.1669C113.935 38.3147 114.253 38.5314 114.519 38.8042C114.782 39.0766 114.994 39.3941 115.145 39.7415C115.221 39.9161 115.277 40.0984 115.314 40.2852C115.332 40.4722 115.332 40.6606 115.314 40.8476C115.318 41.2292 115.248 41.608 115.108 41.9629C114.96 42.3125 114.748 42.6306 114.481 42.9002C114.348 43.0404 114.201 43.166 114.042 43.2751C113.887 43.3933 113.717 43.491 113.537 43.5657C113.363 43.6416 113.181 43.6981 112.994 43.7344C112.815 43.7664 112.634 43.7821 112.452 43.7813L112.471 43.7907ZM122.364 50.9047H118.904C118.092 50.9001 117.28 50.9471 116.473 51.0453C115.783 51.1267 115.101 51.2678 114.435 51.4671C113.872 51.6274 113.329 51.8506 112.817 52.1326C112.36 52.389 111.939 52.7041 111.564 53.0699C111.215 53.4153 110.901 53.7953 110.629 54.204C110.356 54.5931 110.127 55.0111 109.946 55.4506C109.758 55.8971 109.617 56.362 109.525 56.8378C109.437 57.3486 109.394 57.866 109.394 58.3843C109.394 58.8964 109.437 59.4076 109.525 59.9121C109.616 60.3841 109.754 60.8457 109.937 61.29C110.122 61.7214 110.351 62.1329 110.619 62.5178C110.895 62.9154 111.208 63.2857 111.554 63.6238C111.932 63.971 112.353 64.2671 112.807 64.5049C113.327 64.7843 113.876 65.0044 114.444 65.161C115.12 65.3535 115.812 65.4884 116.511 65.564C117.336 65.6612 118.167 65.7082 118.998 65.7046H122.364V50.9047ZM109.647 29.3938L123.776 26.9756V31.0903L108.814 33.7335L108.889 29.5157L109.647 29.3938ZM72.9151 65.4703C73.6131 65.6163 74.3249 65.6854 75.0379 65.6765H106.514L106.299 65.3766C106.062 65.0458 105.849 64.6981 105.663 64.3362C105.467 63.9762 105.295 63.6036 105.149 63.2208C104.999 62.8365 104.868 62.4428 104.756 62.0585C104.642 61.667 104.548 61.2696 104.476 60.8682C104.401 60.4651 104.345 60.0527 104.307 59.6403C104.27 59.2279 104.251 58.7967 104.251 58.3937C104.252 57.3019 104.377 56.2138 104.625 55.1507C104.879 54.1144 105.259 53.1134 105.757 52.1701C106.029 51.6821 106.342 51.2181 106.692 50.7829C107.026 50.339 107.395 49.9222 107.795 49.5363C108.211 49.1419 108.655 48.7785 109.123 48.449C109.612 48.1012 110.124 47.788 110.657 47.5117C111.228 47.2058 111.822 46.9457 112.433 46.7338C113.085 46.5083 113.75 46.3267 114.425 46.1901C115.151 46.0387 115.885 45.9292 116.623 45.8621C117.399 45.7871 118.203 45.759 119.026 45.759H127.526V70.691H74.9818C73.0913 70.7412 71.2162 70.3396 69.5113 69.5194C68.3182 68.9059 67.2938 68.0079 66.5282 66.9043L66.4628 66.9887C66.2174 67.2936 65.9518 67.5817 65.6679 67.851C65.3334 68.1662 64.9772 68.4575 64.6019 68.7227C64.2238 68.9888 63.8269 69.2269 63.4143 69.435C62.5455 69.8655 61.6244 70.1806 60.6744 70.3723C59.6343 70.5847 58.5751 70.6883 57.5137 70.6816H41.5231V65.6765H51.2857L43.9263 41.9723H49.2752L56.6346 65.6765H57.5137C58.4637 65.6951 59.4106 65.5622 60.319 65.2828C61.0373 65.0606 61.6889 64.6622 62.2147 64.1237C62.7405 63.5852 63.1239 62.9237 63.3301 62.1991C63.6094 61.2662 63.7419 60.2954 63.7229 59.3216V36.7047H68.8661V59.1248L72.9151 65.4703ZM18.5751 78.733C17.8056 78.7329 17.0669 78.43 16.5179 77.8894C16.3776 77.7506 16.2493 77.6001 16.1345 77.4395C16.0248 77.277 15.9309 77.1044 15.8539 76.924C15.712 76.5596 15.6391 76.1718 15.6389 75.7805C15.6394 75.5886 15.6582 75.3971 15.695 75.2088C15.7285 75.0213 15.785 74.8387 15.8633 74.6652C15.9383 74.4868 16.0324 74.3171 16.1438 74.159C16.2551 74.0012 16.3803 73.8538 16.5179 73.7185C16.6558 73.5856 16.8061 73.4663 16.9667 73.3623C17.1247 73.2535 17.294 73.1624 17.4717 73.0905C17.6472 73.0208 17.8288 72.9674 18.0141 72.9312C18.1988 72.8939 18.3867 72.875 18.5751 72.8749C18.955 72.8773 19.3304 72.9571 19.6786 73.1092C20.2098 73.3299 20.6626 73.7055 20.9784 74.1871C21.0834 74.3443 21.1741 74.5105 21.2496 74.6839C21.3192 74.8598 21.3724 75.0418 21.4086 75.2275C21.4458 75.4127 21.4646 75.601 21.4647 75.7899C21.4619 76.1557 21.3922 76.5179 21.259 76.8584C21.1105 77.2074 20.898 77.5254 20.6324 77.7957C20.4972 77.9362 20.3501 78.0648 20.1929 78.18C20.0373 78.2871 19.8712 78.3782 19.6973 78.4518C19.5204 78.5289 19.3353 78.5855 19.1456 78.6205C18.9607 78.6813 18.7692 78.7191 18.5751 78.733ZM14.3297 70.691C13.619 70.691 12.9177 70.691 12.2163 70.5973C11.515 70.5036 10.8604 70.4379 10.2432 70.3161C9.61203 70.189 8.98779 70.0295 8.37296 69.8381C7.79533 69.6449 7.23008 69.4164 6.68039 69.1539C6.15424 68.9033 5.64506 68.6183 5.15614 68.3009C4.68513 67.988 4.23814 67.6403 3.81892 67.2605C3.40194 66.888 3.01427 66.4837 2.65936 66.0514C2.31226 65.6206 1.99958 65.163 1.72424 64.683C1.15471 63.7027 0.729509 62.6452 0.461825 61.543C0.320952 60.9688 0.214779 60.3867 0.143884 59.7996C0.0749089 59.1772 0.0405679 58.5514 0.04102 57.9251C0.0497078 56.9013 0.137246 55.8797 0.302854 54.8695C0.494829 53.748 0.757184 52.6398 1.08836 51.5515L1.27538 50.9141H6.50272L6.14737 52.067C5.9884 52.5637 5.84813 53.0605 5.73592 53.5198C5.6237 53.979 5.52084 54.4571 5.44603 54.9257C5.37122 55.3944 5.31511 55.863 5.27771 56.2848C5.2403 56.7066 5.2216 57.1659 5.2216 57.597C5.20022 58.7759 5.39679 59.9485 5.80138 61.0556C6.17031 62.0167 6.75974 62.8772 7.522 63.5676C7.90882 63.9236 8.33196 64.2377 8.78442 64.5049C9.27512 64.7756 9.79211 64.9955 10.3274 65.161C10.9389 65.3479 11.5643 65.4858 12.1976 65.5734C12.9173 65.6628 13.6419 65.7067 14.3671 65.7046H32.2279V48.7396H37.3711V70.691H14.3297Z" fill="white"/>
<path d="M12.1649 82.4819C19.2437 82.4819 24.0129 87.5246 24.0129 94.4887C24.0129 99.7938 21.114 104.021 15.7557 106.195L9.92992 108.567C10.4148 109.615 11.2051 110.491 12.1967 111.08C13.1882 111.669 14.3345 111.943 15.4845 111.866C16.6828 111.906 17.8699 111.624 18.9235 111.051C19.9771 110.478 20.8591 109.633 21.4787 108.604L23.91 110.479C23.0469 111.859 21.8488 112.997 20.4277 113.787C19.0066 114.577 17.4089 114.993 15.7838 114.997C14.0599 115.05 12.3676 114.525 10.974 113.507C9.58037 112.489 8.56484 111.034 8.08773 109.373L4.62777 110.788L3.46822 108.042L9.21923 105.736C6.58121 105.333 4.18384 103.97 2.48483 101.907C0.785814 99.8445 -0.0958141 97.227 0.00826746 94.5543C0.00826746 87.4683 5.1795 82.4819 12.1649 82.4819ZM20.4875 94.5168C20.4875 89.0149 16.934 85.7156 12.1368 85.7156C7.33963 85.7156 3.53368 89.118 3.53368 94.6668C3.53368 100.216 7.15261 103.44 12.0246 103.44C16.8966 103.44 20.4407 100.159 20.4407 94.5543L20.4875 94.5168Z" fill="white"/>
<path d="M39.1012 82.9785L48.013 106.195H44.366L42.4957 100.956H31.8353L29.8996 106.195H26.2246L35.1737 82.9785H39.1012ZM41.3362 97.9752L37.1562 86.5121L32.9481 97.9565L41.3362 97.9752Z" fill="white"/>
<path d="M55.1557 82.9785V103.168H65.6852L65.2924 106.195H52.2942H51.7051V82.9785H55.1557Z" fill="white"/>
<path d="M72.7924 82.9785V103.168H83.3219L82.9291 106.195H69.9309H69.3418V82.9785H72.7924Z" fill="white"/>
<path d="M98.4246 82.9785L107.346 106.195H103.689L101.819 100.956H91.1494L89.2137 106.195H85.5293L94.4878 82.9785H98.4246ZM100.66 97.9752L96.4796 86.5121L92.2715 97.9565L100.66 97.9752Z" fill="white"/>
<path d="M128.537 88.7523C128.556 89.8049 128.263 90.8396 127.695 91.7255C127.128 92.6114 126.311 93.3087 125.348 93.7293C126.501 94.1374 127.496 94.9018 128.188 95.9124C128.88 96.923 129.235 98.1276 129.201 99.3531C129.201 103.102 126.395 106.111 122.131 106.111H111.031V82.9785H122.187C126.096 82.9785 128.537 85.4905 128.537 88.7523ZM121.458 92.5014C123.73 92.5014 124.983 91.2455 124.983 89.2022C124.983 87.1589 123.665 85.9685 121.458 85.9685H114.482V92.5296L121.458 92.5014ZM121.233 103.187C124.039 103.187 125.638 101.537 125.638 99.1937C125.663 98.655 125.574 98.1171 125.377 97.6154C125.179 97.1138 124.878 96.6597 124.493 96.2833C124.107 95.9069 123.647 95.6166 123.142 95.4316C122.636 95.2467 122.097 95.1712 121.561 95.2102H114.482V103.187H121.233Z" fill="white"/>
<path d="M66.9096 28.2595V31.2213C66.9241 31.7412 66.833 32.2585 66.6417 32.7419C66.4503 33.2253 66.1629 33.6647 65.7968 34.0332C65.4452 34.4019 65.0208 34.6931 64.5507 34.8883C64.0806 35.0836 63.575 35.1786 63.0663 35.1673C62.5711 35.1729 62.08 35.0768 61.6233 34.885C61.1666 34.6932 60.7538 34.4097 60.4105 34.052C60.0737 34.4181 59.6622 34.7072 59.2039 34.8997C58.7457 35.0922 58.2514 35.1835 57.7548 35.1673C57.2433 35.1804 56.7346 35.0882 56.2601 34.8963C55.7856 34.7045 55.3554 34.4171 54.9962 34.052C54.6348 33.6809 54.3517 33.2407 54.1637 32.7576C53.9757 32.2745 53.8868 31.7584 53.9021 31.2401V28.2407H56.2586V31.2401C56.2462 31.4493 56.2753 31.659 56.3443 31.8569C56.4134 32.0548 56.5209 32.237 56.6607 32.3929C56.8018 32.5389 56.9725 32.6528 57.1612 32.7272C57.3499 32.8016 57.5523 32.8346 57.7548 32.8241C57.9615 32.8325 58.1676 32.7967 58.3595 32.7191C58.5513 32.6416 58.7245 32.524 58.8676 32.3742C59.0114 32.2237 59.1236 32.0457 59.1975 31.8509C59.2714 31.6561 59.3055 31.4484 59.2977 31.2401V28.2407H61.6075V31.2401C61.5852 31.6591 61.7222 32.0711 61.9909 32.3929C62.1294 32.536 62.2973 32.6471 62.4831 32.7183C62.6688 32.7896 62.8679 32.8193 63.0663 32.8053C63.2746 32.8176 63.4831 32.7856 63.6781 32.7112C63.8731 32.6369 64.0502 32.5221 64.1978 32.3742C64.4667 32.0534 64.5978 31.6388 64.5625 31.2213V28.2595H66.9096Z" fill="white"/>
<path d="M225.33 29.2624C225.563 29.293 225.798 29.293 226.031 29.2624C226.121 29.2353 226.2 29.1793 226.256 29.103C226.307 29.0115 226.332 28.908 226.33 28.8031C226.335 28.7462 226.329 28.6888 226.311 28.6345C226.294 28.5802 226.265 28.53 226.228 28.4871C226.19 28.4441 226.144 28.4093 226.093 28.3846C226.041 28.36 225.985 28.3461 225.928 28.3438C225.863 28.3438 225.47 28.3438 224.75 28.3438V29.2811L225.33 29.2624ZM227.452 31.5025H226.517L225.947 30.6589C225.824 30.4583 225.687 30.2671 225.535 30.0872C225.471 30.0167 225.391 29.9621 225.302 29.9279C225.121 29.8885 224.935 29.8727 224.75 29.881V31.5025H223.964V27.6221H225.61C225.925 27.6068 226.241 27.6416 226.545 27.7252C226.731 27.7989 226.888 27.9303 226.994 28.1001C227.108 28.2825 227.167 28.4942 227.163 28.7094C227.173 28.9733 227.083 29.2314 226.91 29.4311C226.703 29.6352 226.432 29.7611 226.143 29.7873C226.295 29.8766 226.434 29.9871 226.555 30.1153C226.724 30.3133 226.874 30.5267 227.004 30.7527L227.452 31.5025ZM227.976 27.0597C227.314 26.3998 226.418 26.0294 225.484 26.0294C224.55 26.0294 223.654 26.3998 222.992 27.0597C222.333 27.7252 221.963 28.6247 221.963 29.5623C221.939 30.041 222.011 30.5198 222.177 30.9694C222.343 31.419 222.598 31.8301 222.928 32.1777C223.257 32.5253 223.654 32.802 224.093 32.9912C224.533 33.1803 225.006 33.2778 225.484 33.2778C225.962 33.2778 226.436 33.1803 226.875 32.9912C227.314 32.802 227.711 32.5253 228.04 32.1777C228.37 31.8301 228.625 31.419 228.791 30.9694C228.957 30.5198 229.029 30.041 229.005 29.5623C229.005 28.6247 228.635 27.7252 227.976 27.0597ZM225.489 25.0352C226.533 25.035 227.546 25.3979 228.354 26.0619C229.161 26.7259 229.714 27.6501 229.919 28.6769C230.123 29.7038 229.966 30.7699 229.474 31.6937C228.982 32.6175 228.186 33.3418 227.221 33.7434C226.256 34.1449 225.183 34.1988 224.183 33.8958C223.183 33.5929 222.318 32.9519 221.737 32.082C221.155 31.212 220.893 30.167 220.994 29.1248C221.095 28.0826 221.553 27.1077 222.291 26.3661C222.709 25.9431 223.207 25.6076 223.756 25.3791C224.305 25.1506 224.894 25.0337 225.489 25.0352Z" fill="white"/>
<path d="M229.997 54.8224V69.8191C229.997 81.709 225.285 93.1119 216.897 101.519C208.509 109.927 197.132 114.65 185.27 114.65C173.408 114.65 162.031 109.927 153.643 101.519C145.255 93.1119 140.543 81.709 140.543 69.8191V21.7265L162.397 0V69.8285C162.397 75.9089 164.807 81.7403 169.096 86.0398C173.386 90.3393 179.204 92.7547 185.27 92.7547C191.336 92.7547 197.154 90.3393 201.444 86.0398C205.733 81.7403 208.143 75.9089 208.143 69.8285V49.0111C208.145 48.446 207.925 47.9028 207.528 47.5006C207.132 47.0983 206.593 46.8697 206.03 46.8647H185.27L165.473 24.9883H202.027C204.359 24.9144 206.678 25.3613 208.816 26.2967C210.954 27.2321 212.858 28.6325 214.39 30.3965L225.499 43.3311C228.38 46.4625 229.985 50.5628 229.997 54.8224Z" fill="white"/>
<path d="M218.214 0H185.269L165.473 21.9046H202.429C204.755 21.9397 207.062 21.4752 209.194 20.5424C211.327 19.6096 213.235 18.23 214.791 16.4964L230.08 0H218.214Z" fill="#FEC84B"/>
</svg>
