<svg width="20" height="20" viewBox="0 0 20 20" fill="none" xmlns="http://www.w3.org/2000/svg">
<g clip-path="url(#clip0_3002_22161)">
<path d="M10 20C15.5228 20 20 15.5228 20 10C20 4.47715 15.5228 0 10 0C4.47715 0 0 4.47715 0 10C0 15.5228 4.47715 20 10 20Z" fill="#6DA544"/>
<path d="M5.65283 11.9565C5.65283 12.6769 6.23682 13.2609 6.95717 13.2609H10.8702C10.8702 13.8612 11.3569 14.3478 11.9572 14.3478H13.2615C13.8618 14.3478 14.3485 13.8612 14.3485 13.2609V11.9565H5.65283Z" fill="#F0F0F0"/>
<path d="M14.4565 5.65234V8.69582C14.4565 9.17531 14.0664 9.56538 13.5869 9.56538V10.8697C14.7856 10.8697 15.7608 9.89449 15.7608 8.69582V5.65234H14.4565V5.65234Z" fill="#F0F0F0"/>
<path d="M5.10883 8.69582C5.10883 9.17531 4.71875 9.56538 4.23926 9.56538V10.8697C5.43797 10.8697 6.41316 9.89449 6.41316 8.69582V5.65234H5.10883V8.69582Z" fill="#F0F0F0"/>
<path d="M13.8048 5.65234H12.5005V8.69582H13.8048V5.65234Z" fill="#F0F0F0"/>
<path d="M10.5437 7.39148C10.5437 7.51137 10.4461 7.60887 10.3263 7.60887C10.2065 7.60887 10.1089 7.51133 10.1089 7.39148V5.65234H8.80457V7.39148C8.80457 7.51137 8.70703 7.60887 8.58719 7.60887C8.46735 7.60887 8.36981 7.51133 8.36981 7.39148V5.65234H7.06543V7.39148C7.06543 8.23058 7.74809 8.91324 8.58719 8.91324C8.91035 8.91324 9.21004 8.81168 9.45676 8.63918C9.70344 8.81164 10.0032 8.91324 10.3263 8.91324C10.3914 8.91324 10.4554 8.90867 10.5183 8.90066C10.4259 9.28148 10.0829 9.56539 9.67415 9.56539V10.8697C10.8729 10.8697 11.8481 9.89449 11.8481 8.69582V7.39148V5.65234H10.5437V7.39148H10.5437Z" fill="#F0F0F0"/>
<path d="M9.02195 9.56494H7.06543V10.8693H9.02195V9.56494Z" fill="#F0F0F0"/>
</g>
<defs>
<clipPath id="clip0_3002_22161">
<rect width="20" height="20" fill="white"/>
</clipPath>
</defs>
</svg>
