<svg width="104" height="52" viewBox="0 0 104 52" fill="none" xmlns="http://www.w3.org/2000/svg">
<g clip-path="url(#clip0_12232_15378)">
<path fill-rule="evenodd" clip-rule="evenodd" d="M53.9936 19.7956C53.8193 19.7963 53.6467 19.7617 53.4862 19.6939C53.3281 19.624 53.1846 19.5248 53.0634 19.4015C53.0025 19.3376 52.946 19.2696 52.8942 19.198C52.8468 19.1255 52.8057 19.0489 52.7716 18.9692C52.7386 18.8898 52.7131 18.8075 52.6955 18.7234C52.6785 18.6369 52.67 18.5488 52.6701 18.4606C52.6693 18.2874 52.7039 18.1157 52.7716 17.9563C52.8424 17.7974 52.9429 17.6536 53.0676 17.5325C53.1315 17.4737 53.2008 17.4212 53.2748 17.3757C53.3463 17.3279 53.4229 17.2881 53.5031 17.2571C53.5813 17.2222 53.6638 17.198 53.7483 17.185C53.8318 17.1682 53.9168 17.1596 54.002 17.1596C54.1746 17.1574 54.3458 17.1906 54.5052 17.2571C54.6642 17.3234 54.808 17.4214 54.928 17.5452C54.9896 17.6058 55.0448 17.6726 55.0929 17.7444C55.1395 17.816 55.1804 17.8911 55.2155 17.969C55.2464 18.0488 55.2704 18.131 55.2874 18.2148C55.3042 18.2985 55.3127 18.3837 55.3127 18.4691C55.3132 18.6419 55.2802 18.8132 55.2155 18.9734C55.1506 19.1324 55.0542 19.2766 54.9322 19.3972C54.8731 19.4616 54.8063 19.5185 54.7335 19.5668C54.6642 19.6192 54.589 19.6633 54.5094 19.6981C54.4302 19.7312 54.3481 19.7568 54.2642 19.7744C54.1778 19.7911 54.09 19.7996 54.002 19.7998M50.8351 19.7998C50.6609 19.8005 50.4883 19.7659 50.3277 19.6981C50.1697 19.6283 50.0262 19.529 49.9049 19.4057C49.8416 19.344 49.785 19.2758 49.7358 19.2023C49.6854 19.1308 49.6429 19.0541 49.609 18.9734C49.5759 18.8941 49.5504 18.8118 49.5329 18.7276C49.5158 18.6411 49.5073 18.5531 49.5075 18.4649C49.5067 18.2916 49.5412 18.12 49.609 17.9606C49.6814 17.8015 49.7832 17.6577 49.9092 17.5368C49.9715 17.4767 50.0395 17.4228 50.1121 17.3757C50.1827 17.3288 50.2577 17.289 50.3362 17.2571C50.4144 17.2222 50.4969 17.198 50.5814 17.185C50.6663 17.168 50.7528 17.1594 50.8394 17.1596C51.0106 17.157 51.1805 17.1902 51.3383 17.2571C51.497 17.3239 51.6408 17.4219 51.7611 17.5452C51.8801 17.6684 51.976 17.8119 52.0444 17.969C52.0786 18.048 52.1041 18.1304 52.1205 18.2148C52.129 18.2994 52.129 18.3846 52.1205 18.4691C52.1223 18.6417 52.0907 18.8129 52.0275 18.9734C51.9608 19.1315 51.8647 19.2753 51.7442 19.3972C51.6841 19.4606 51.6175 19.5174 51.5455 19.5668C51.4753 19.6202 51.3985 19.6643 51.3171 19.6981C51.2384 19.7324 51.1562 19.758 51.0719 19.7744C50.991 19.7889 50.9089 19.796 50.8267 19.7956L50.8351 19.7998ZM55.3085 23.0165H53.7441C53.3767 23.0144 53.0095 23.0356 52.6448 23.08C52.3326 23.1168 52.0242 23.1806 51.723 23.2707C51.4687 23.3432 51.2234 23.4441 50.9916 23.5716C50.7851 23.6876 50.5946 23.8301 50.425 23.9954C50.2671 24.1516 50.1255 24.3234 50.0022 24.5082C49.8789 24.6842 49.7754 24.8732 49.6935 25.0719C49.6086 25.2738 49.5448 25.484 49.5033 25.6991C49.4636 25.9301 49.4438 26.164 49.4441 26.3984C49.4438 26.6299 49.4636 26.8611 49.5033 27.0892C49.5442 27.3026 49.6065 27.5113 49.6893 27.7122C49.7731 27.9072 49.8765 28.0933 49.9979 28.2673C50.1227 28.4471 50.2643 28.6145 50.4208 28.7674C50.5915 28.9244 50.782 29.0583 50.9873 29.1658C51.2221 29.2921 51.4703 29.3917 51.7273 29.4624C52.0331 29.5495 52.3456 29.6105 52.6617 29.6447C53.035 29.6886 53.4105 29.7098 53.7864 29.7082H55.3085V23.0165ZM49.5582 13.2903L55.947 12.1969V14.0574L49.1819 15.2525L49.2157 13.3454L49.5582 13.2903ZM32.95 29.6023C33.2656 29.6683 33.5874 29.6996 33.9098 29.6955H48.1418L48.0445 29.5599C47.9374 29.4103 47.8413 29.2531 47.757 29.0895C47.6685 28.9267 47.5908 28.7582 47.5245 28.5852C47.4568 28.4114 47.3976 28.2334 47.3469 28.0597C47.2952 27.8826 47.2529 27.703 47.2201 27.5214C47.1862 27.3392 47.1609 27.1527 47.1439 26.9663C47.127 26.7798 47.1186 26.5848 47.1186 26.4026C47.1188 25.909 47.1756 25.417 47.2877 24.9363C47.4025 24.4677 47.5744 24.0151 47.7993 23.5886C47.9224 23.368 48.0638 23.1582 48.2221 22.9614C48.3735 22.7607 48.5403 22.5722 48.721 22.3977C48.909 22.2194 49.1096 22.0551 49.3214 21.9061C49.5425 21.7489 49.7742 21.6073 50.0149 21.4823C50.273 21.344 50.5416 21.2264 50.8182 21.1306C51.1126 21.0286 51.4135 20.9465 51.7188 20.8848C52.0469 20.8163 52.3787 20.7668 52.7124 20.7364C53.0634 20.7025 53.427 20.6898 53.7991 20.6898H57.6425V31.9628H33.8844C33.0297 31.9855 32.1818 31.8039 31.411 31.4331C30.8715 31.1557 30.4083 30.7497 30.0622 30.2507L30.0326 30.2888C29.9216 30.4267 29.8016 30.557 29.6732 30.6787C29.5219 30.8213 29.3609 30.953 29.1912 31.0729C29.0203 31.1932 28.8408 31.3008 28.6542 31.395C28.2614 31.5896 27.8449 31.7321 27.4154 31.8188C26.9451 31.9148 26.4662 31.9616 25.9862 31.9586H18.7561V29.6955H23.1703L19.8427 18.9777H22.2612L25.5888 29.6955H25.9862C26.4158 29.7039 26.844 29.6438 27.2547 29.5175C27.5795 29.417 27.8741 29.2369 28.1118 28.9934C28.3496 28.7499 28.5229 28.4508 28.6162 28.1232C28.7424 27.7014 28.8023 27.2625 28.7937 26.8222V16.5959H31.1192V26.7332L32.95 29.6023ZM8.38019 35.599C8.03224 35.599 7.69822 35.462 7.45 35.2176C7.38657 35.1549 7.32858 35.0868 7.27664 35.0142C7.22706 34.9407 7.18459 34.8627 7.1498 34.7811C7.08562 34.6163 7.05265 34.441 7.05255 34.2641C7.05281 34.1773 7.06131 34.0907 7.07792 34.0056C7.09306 33.9208 7.11863 33.8382 7.15403 33.7598C7.18794 33.6791 7.23047 33.6024 7.28087 33.5309C7.33118 33.4596 7.38778 33.3929 7.45 33.3317C7.51234 33.2716 7.58031 33.2177 7.65295 33.1707C7.72436 33.1215 7.80092 33.0803 7.88127 33.0478C7.96063 33.0162 8.04272 32.9921 8.1265 32.9757C8.21002 32.9589 8.295 32.9503 8.38019 32.9503C8.55194 32.9514 8.72168 32.9874 8.87912 33.0562C9.1193 33.156 9.32404 33.3258 9.46683 33.5436C9.51429 33.6147 9.55533 33.6898 9.58945 33.7682C9.6209 33.8478 9.64497 33.93 9.66133 34.014C9.67814 34.0977 9.68664 34.1829 9.6867 34.2683C9.68543 34.4337 9.65391 34.5975 9.59368 34.7514C9.52657 34.9092 9.43048 35.053 9.31039 35.1752C9.24924 35.2388 9.18276 35.2969 9.11166 35.349C9.04128 35.3974 8.96621 35.4386 8.88757 35.4719C8.80759 35.5068 8.72389 35.5323 8.63811 35.5482C8.55454 35.5756 8.46792 35.5927 8.38019 35.599ZM6.46061 31.9628C6.13927 31.9628 5.82216 31.9628 5.50505 31.9205C5.18794 31.8781 4.89196 31.8484 4.61291 31.7933C4.32752 31.7359 4.04527 31.6637 3.76727 31.5772C3.5061 31.4899 3.25052 31.3865 3.00198 31.2678C2.76408 31.1545 2.53386 31.0257 2.31279 30.8822C2.09982 30.7407 1.89771 30.5835 1.70816 30.4117C1.51963 30.2433 1.34434 30.0605 1.18387 29.865C1.02693 29.6703 0.885551 29.4634 0.761055 29.2463C0.503542 28.8031 0.311287 28.3249 0.190254 27.8266C0.126558 27.567 0.0785517 27.3037 0.0464965 27.0383C0.0153096 26.7569 -0.000217706 26.4739 -1.32662e-05 26.1907C0.00391489 25.7278 0.0434953 25.2659 0.118375 24.8091C0.205177 24.3021 0.323801 23.801 0.47354 23.3089L0.558104 23.0207H2.92164L2.76097 23.542C2.6891 23.7666 2.62567 23.9912 2.57493 24.1989C2.5242 24.4065 2.47769 24.6227 2.44386 24.8346C2.41004 25.0465 2.38467 25.2584 2.36775 25.4491C2.35084 25.6398 2.34239 25.8474 2.34239 26.0424C2.33272 26.5754 2.4216 27.1056 2.60453 27.6062C2.77134 28.0407 3.03786 28.4298 3.38251 28.742C3.55741 28.9029 3.74873 29.045 3.95331 29.1658C4.17518 29.2882 4.40894 29.3876 4.65096 29.4624C4.92747 29.5469 5.21023 29.6093 5.49659 29.6489C5.822 29.6894 6.14963 29.7092 6.47752 29.7082H14.5533V22.0375H16.8788V31.9628H6.46061Z" fill="white"/>
<path d="M5.49659 37.2942C8.69731 37.2942 10.8537 39.5742 10.8537 42.7231C10.8537 45.1218 9.54294 47.0331 7.1202 48.0163L4.48606 49.0885C4.70532 49.5624 5.06265 49.9585 5.51098 50.2248C5.95931 50.4911 6.47761 50.6151 6.99759 50.5803C7.53936 50.5982 8.0761 50.4709 8.55249 50.2117C9.02888 49.9525 9.4277 49.5706 9.70784 49.1055L10.8072 49.9531C10.4169 50.5771 9.87518 51.0917 9.23263 51.449C8.59008 51.8062 7.86766 51.9943 7.13289 51.9958C6.35345 52.0197 5.58826 51.7827 4.95814 51.3222C4.32801 50.8618 3.86884 50.2041 3.65311 49.453L2.08869 50.0929L1.5644 48.8512L4.16472 47.8086C2.97194 47.6262 1.88797 47.0099 1.11976 46.0773C0.351552 45.1447 -0.047076 43.9612 -1.55275e-05 42.7527C-1.55275e-05 39.5488 2.33816 37.2942 5.49659 37.2942ZM9.25965 42.7358C9.25965 40.2481 7.65295 38.7563 5.48391 38.7563C3.31486 38.7563 1.594 40.2947 1.594 42.8036C1.594 45.3125 3.2303 46.7703 5.43317 46.7703C7.63604 46.7703 9.23851 45.287 9.23851 42.7527L9.25965 42.7358Z" fill="white"/>
<path d="M17.661 37.5188L21.6904 48.0163H20.0415L19.1958 45.6473H14.3757L13.5005 48.0163H11.8388L15.8852 37.5188H17.661ZM18.6715 44.2996L16.7816 39.1165L14.8789 44.2911L18.6715 44.2996Z" fill="white"/>
<path d="M24.9208 37.5188V46.6474H29.6817L29.5041 48.0163H23.6269H23.3606V37.5188H24.9208Z" fill="white"/>
<path d="M32.8951 37.5188V46.6474H37.656L37.4784 48.0163H31.6012H31.3349V37.5188H32.8951Z" fill="white"/>
<path d="M44.4844 37.5188L48.5181 48.0163H46.8649L46.0193 45.6473H41.1949L40.3197 48.0163H38.6538L42.7044 37.5188H44.4844ZM45.495 44.2996L43.605 39.1165L41.7023 44.2911L45.495 44.2996Z" fill="white"/>
<path d="M58.0991 40.1294C58.1077 40.6054 57.9753 41.0732 57.7187 41.4738C57.4621 41.8743 57.0927 42.1896 56.6573 42.3798C57.1788 42.5643 57.6283 42.9099 57.9414 43.3669C58.2544 43.8238 58.4147 44.3685 58.3993 44.9226C58.3993 46.6178 57.1309 47.9782 55.2028 47.9782H50.184V37.5188H55.2282C56.9955 37.5188 58.0991 38.6546 58.0991 40.1294ZM54.8984 41.8246C55.9258 41.8246 56.4924 41.2567 56.4924 40.3328C56.4924 39.409 55.8962 38.8707 54.8984 38.8707H51.7442V41.8373L54.8984 41.8246ZM54.7969 46.6559C56.0654 46.6559 56.7884 45.91 56.7884 44.8505C56.7998 44.607 56.7595 44.3637 56.6703 44.1369C56.581 43.9101 56.4448 43.7048 56.2706 43.5346C56.0964 43.3644 55.8882 43.2331 55.6596 43.1495C55.4311 43.0659 55.1875 43.0318 54.9449 43.0494H51.7442V46.6559H54.7969Z" fill="white"/>
<path d="M30.2355 12.7775V14.1167C30.2421 14.3518 30.2009 14.5857 30.1144 14.8042C30.0279 15.0228 29.8979 15.2215 29.7324 15.3881C29.5734 15.5548 29.3815 15.6865 29.1689 15.7748C28.9564 15.863 28.7278 15.906 28.4978 15.9009C28.2739 15.9034 28.0518 15.86 27.8453 15.7732C27.6388 15.6865 27.4522 15.5583 27.297 15.3966C27.1447 15.5621 26.9586 15.6929 26.7514 15.7799C26.5442 15.8669 26.3207 15.9082 26.0962 15.9009C25.8649 15.9068 25.6349 15.8651 25.4204 15.7784C25.2058 15.6916 25.0113 15.5617 24.8489 15.3966C24.6855 15.2288 24.5575 15.0298 24.4725 14.8113C24.3875 14.5929 24.3472 14.3595 24.3542 14.1252V12.769H25.4197V14.1252C25.4141 14.2198 25.4272 14.3146 25.4584 14.4041C25.4896 14.4936 25.5383 14.5759 25.6015 14.6465C25.6653 14.7124 25.7425 14.764 25.8278 14.7976C25.9131 14.8312 26.0046 14.8462 26.0962 14.8414C26.1896 14.8452 26.2828 14.829 26.3696 14.7939C26.4563 14.7589 26.5346 14.7057 26.5993 14.638C26.6644 14.5699 26.7151 14.4895 26.7485 14.4014C26.7819 14.3133 26.7973 14.2194 26.7938 14.1252V12.769H27.8382V14.1252C27.8281 14.3147 27.89 14.5009 28.0115 14.6465C28.0741 14.7112 28.1501 14.7614 28.2341 14.7936C28.3181 14.8258 28.4081 14.8392 28.4978 14.8329C28.5919 14.8385 28.6862 14.824 28.7744 14.7904C28.8626 14.7568 28.9427 14.7048 29.0094 14.638C29.131 14.4929 29.1903 14.3055 29.1743 14.1167V12.7775H30.2355Z" fill="white"/>
<path d="M101.865 13.231C101.97 13.2448 102.077 13.2448 102.182 13.231C102.223 13.2187 102.258 13.1934 102.283 13.1589C102.306 13.1175 102.318 13.0707 102.317 13.0233C102.319 12.9976 102.317 12.9716 102.309 12.9471C102.301 12.9225 102.288 12.8998 102.271 12.8804C102.254 12.861 102.233 12.8452 102.21 12.8341C102.186 12.823 102.161 12.8167 102.135 12.8156C102.106 12.8156 101.928 12.8156 101.603 12.8156V13.2394L101.865 13.231ZM102.825 14.2438H102.402L102.144 13.8624C102.088 13.7717 102.026 13.6853 101.958 13.6039C101.929 13.572 101.892 13.5474 101.852 13.5319C101.77 13.5141 101.686 13.5069 101.603 13.5107V14.2438H101.247V12.4893H101.992C102.134 12.4824 102.277 12.4982 102.414 12.5359C102.498 12.5693 102.57 12.6287 102.617 12.7055C102.669 12.7879 102.695 12.8836 102.693 12.9809C102.698 13.1003 102.657 13.2169 102.579 13.3073C102.486 13.3996 102.363 13.4565 102.233 13.4683C102.301 13.5087 102.364 13.5586 102.419 13.6166C102.495 13.7062 102.563 13.8026 102.622 13.9048L102.825 14.2438ZM103.061 12.235C102.762 11.9367 102.357 11.7692 101.935 11.7692C101.512 11.7692 101.107 11.9367 100.808 12.235C100.51 12.5359 100.343 12.9427 100.343 13.3666C100.332 13.583 100.364 13.7995 100.439 14.0028C100.514 14.2061 100.63 14.392 100.779 14.5491C100.928 14.7063 101.107 14.8314 101.306 14.9169C101.504 15.0025 101.718 15.0466 101.935 15.0466C102.151 15.0466 102.365 15.0025 102.563 14.9169C102.762 14.8314 102.941 14.7063 103.09 14.5491C103.239 14.392 103.355 14.2061 103.43 14.0028C103.505 13.7995 103.538 13.583 103.526 13.3666C103.526 12.9427 103.359 12.5359 103.061 12.235ZM101.937 11.3196C102.409 11.3196 102.867 11.4836 103.232 11.7839C103.597 12.0841 103.847 12.502 103.94 12.9663C104.032 13.4306 103.961 13.9126 103.739 14.3303C103.516 14.748 103.156 15.0755 102.72 15.2571C102.284 15.4386 101.798 15.463 101.346 15.326C100.894 15.189 100.503 14.8992 100.24 14.5059C99.9774 14.1125 99.8586 13.64 99.9043 13.1688C99.9499 12.6975 100.157 12.2567 100.491 11.9214C100.68 11.7301 100.905 11.5784 101.153 11.4751C101.402 11.3718 101.668 11.319 101.937 11.3196Z" fill="white"/>
<path d="M103.975 24.7879V31.5687C103.975 36.9447 101.844 42.1005 98.0514 45.9019C94.2588 49.7034 89.1149 51.839 83.7513 51.839C78.3878 51.839 73.2439 49.7034 69.4513 45.9019C65.6587 42.1005 63.5281 36.9447 63.5281 31.5687V9.82364L73.4093 0V31.5729C73.4093 34.3222 74.4989 36.9589 76.4384 38.9029C78.3779 40.8469 81.0085 41.939 83.7513 41.939C86.4942 41.939 89.1248 40.8469 91.0643 38.9029C93.0038 36.9589 94.0934 34.3222 94.0934 31.5729V22.1604C94.0945 21.9049 93.9946 21.6593 93.8156 21.4774C93.6365 21.2955 93.3928 21.1921 93.1379 21.1899H83.7513L74.8003 11.2985H91.3282C92.3825 11.265 93.431 11.4671 94.3978 11.8901C95.3646 12.313 96.2254 12.9462 96.9178 13.7438L101.941 19.5922C103.244 21.008 103.969 22.862 103.975 24.7879Z" fill="white"/>
<path d="M98.6471 0H83.7513L74.8003 9.90416H91.51C92.5618 9.92004 93.6049 9.71003 94.569 9.28825C95.5332 8.86647 96.396 8.24269 97.0996 7.45884L104.013 0H98.6471Z" fill="#FEC84B"/>
</g>
<defs>
<clipPath id="clip0_12232_15378">
<rect width="104" height="52" fill="white"/>
</clipPath>
</defs>
</svg>
