<svg width="11" height="12" viewBox="0 0 11 12" fill="none" xmlns="http://www.w3.org/2000/svg">
<path d="M10.6242 9.25373C10.8205 8.79435 10.9503 8.29561 11 7.7727L7.76421 8.49922V7.10259L10.6241 6.46098C10.8204 6.0016 10.9502 5.50286 10.9999 4.97995L7.76411 5.70585V0.683132C7.26829 0.977024 6.82796 1.36823 6.47001 1.82967V5.99633L5.17591 6.28671V0C4.68009 0.293789 4.23976 0.685094 3.88181 1.14654V6.57699L0.986256 7.22655C0.789964 7.68593 0.660114 8.18467 0.610307 8.70758L3.88181 7.97362V9.73243L0.375754 10.519C0.179462 10.9784 0.0497091 11.4771 0 12L3.66986 11.1767C3.96861 11.1111 4.22537 10.9246 4.39231 10.668L5.06534 9.61467V9.61446C5.13521 9.50548 5.17591 9.37408 5.17591 9.23256V7.68324L6.47001 7.39286V10.1861L10.6241 9.25353L10.6242 9.25373Z" fill="currentColor"/>
</svg>
